<?xml version="1.0" encoding="utf-8"?>
<!-- Generator: Adobe Illustrator 27.5.0, SVG Export Plug-In . SVG Version: 6.00 Build 0)  -->
<svg version="1.1" xmlns="http://www.w3.org/2000/svg" xmlns:xlink="http://www.w3.org/1999/xlink" x="0px" y="0px"
	 viewBox="0 0 3710 3710" style="enable-background:new 0 0 3710 3710;" xml:space="preserve">
<g id="Background">
	<g>
		<g>
			<rect style="fill:#FFFFFF;" width="3710" height="3710"/>
		</g>
	</g>
</g>
<g id="Illustration">
	<g>
		<linearGradient id="SVGID_1_" gradientUnits="userSpaceOnUse" x1="3596.3816" y1="4052.6125" x2="1131.202" y2="991.0142">
			<stop  offset="0" style="stop-color:#DAE3FE"/>
			<stop  offset="1" style="stop-color:#E9EFFD"/>
		</linearGradient>
		<path style="fill:url(#SVGID_1_);" d="M2918.195,2845.229c-56.625,59.612-110.201,98.054-152.532,128.427
			c-497.585,357.023-1086.36,252.952-1211.492,227.537c-184.78-37.53-541.955-110.074-800.186-413.749
			c-390.682-459.435-329.847-1183.261-26.808-1661.068c55.431-87.399,348.232-572.485,943.349-650.277
			c360.158-47.079,779.987,47.874,1084.016,302.589C3392.725,1313.359,3347.293,2393.488,2918.195,2845.229z"/>
		<g>
			<g>
				<g style="opacity:0.3;">
					<path style="fill:#91B3FA;" d="M906.551,1225.5c0.797-5.22,5.677-8.803,10.894-8.003c10.138,1.55,20.494,2.685,30.781,3.369
						c5.205,0.346,9.158,4.799,8.911,9.986c-0.003,0.061-0.006,0.123-0.009,0.186c-0.351,5.267-4.906,9.252-10.174,8.901
						c-10.828-0.721-21.73-1.914-32.403-3.547c-4.88-0.745-8.33-5.064-8.101-9.889C906.467,1226.17,906.498,1225.835,906.551,1225.5
						z M998.527,1220.763c10.28-0.723,20.625-1.894,30.759-3.48c5.212-0.816,10.104,2.748,10.921,7.964
						c0.802,5.237-2.752,10.105-7.968,10.921c-10.661,1.669-21.551,2.902-32.367,3.665c-5.265,0.37-9.835-3.599-10.206-8.865
						c-0.027-0.382-0.031-0.762-0.013-1.135C989.879,1225.062,993.644,1221.107,998.527,1220.763z M1078.293,1206.071
						c9.834-2.985,19.656-6.434,29.201-10.256c4.9-1.961,10.464,0.422,12.426,5.322c1.954,4.898-0.422,10.461-5.322,12.426
						c-10.051,4.023-20.398,7.657-30.751,10.799c-5.051,1.534-10.388-1.319-11.924-6.369c-0.326-1.077-0.454-2.167-0.404-3.23
						C1071.705,1210.839,1074.319,1207.276,1078.293,1206.071z M1152.77,1173.907c8.929-5.114,17.738-10.676,26.186-16.528
						c4.34-3.005,10.295-1.924,13.3,2.414c3.001,4.342,1.919,10.293-2.414,13.3c-8.897,6.162-18.172,12.016-27.566,17.401
						c-4.58,2.623-10.421,1.038-13.045-3.542c-0.939-1.639-1.339-3.439-1.256-5.195
						C1148.125,1178.604,1149.83,1175.594,1152.77,1173.907z M1218.225,1125.954c7.551-6.953,14.914-14.328,21.875-21.921
						c3.571-3.89,9.616-4.15,13.506-0.583c3.893,3.569,4.152,9.616,0.581,13.504c-7.324,7.988-15.071,15.748-23.016,23.063
						c-3.882,3.576-9.929,3.326-13.505-0.559c-1.802-1.956-2.633-4.463-2.516-6.926
						C1215.266,1130.108,1216.298,1127.728,1218.225,1125.954z M1271.438,1064.713c5.836-8.462,11.379-17.28,16.479-26.211
						c2.617-4.584,8.457-6.179,13.038-3.562c4.586,2.617,6.181,8.453,3.564,13.04c-5.365,9.398-11.203,18.68-17.344,27.586
						c-2.998,4.345-8.948,5.438-13.295,2.441c-2.823-1.947-4.271-5.14-4.12-8.331
						C1269.842,1067.956,1270.387,1066.236,1271.438,1064.713z M1315.108,712.475c4.903-1.954,10.464,0.437,12.417,5.342
						c4.001,10.046,7.617,20.405,10.747,30.784c1.524,5.055-1.338,10.387-6.392,11.91c-5.051,1.525-10.384-1.338-11.908-6.391
						c-2.971-9.855-6.407-19.69-10.207-29.23c-0.521-1.309-0.733-2.662-0.671-3.984
						C1309.266,717.278,1311.511,713.906,1315.108,712.475z M1309.73,993.243c3.806-9.543,7.244-19.367,10.215-29.203
						c1.529-5.053,6.864-7.912,11.916-6.385c5.055,1.528,7.886,6.858,6.383,11.916c-3.13,10.356-6.75,20.703-10.759,30.752
						c-1.956,4.903-7.515,7.293-12.42,5.337c-3.889-1.551-6.197-5.37-6.009-9.331
						C1309.105,995.299,1309.327,994.257,1309.73,993.243z M1339.078,792.256c5.215-0.807,10.099,2.77,10.905,7.988
						c1.649,10.686,2.859,21.585,3.602,32.392c0.385,5.27-3.617,9.827-8.882,10.19c-5.265,0.361-9.827-3.616-10.19-8.883
						c-0.705-10.271-1.854-20.629-3.424-30.784c-0.1-0.648-0.129-1.29-0.099-1.92
						C1331.201,796.793,1334.511,792.96,1339.078,792.256z M1331.084,915.023c1.573-10.148,2.729-20.497,3.433-30.763
						c0.359-5.268,4.92-9.243,10.189-8.883c5.197,0.357,9.139,4.805,8.893,9.985c-0.003,0.067-0.006,0.136-0.013,0.203
						c-0.737,10.808-1.953,21.705-3.608,32.385c-0.812,5.217-5.695,8.79-10.912,7.982c-4.872-0.754-8.312-5.068-8.083-9.887
						C1330.999,915.707,1331.034,915.365,1331.084,915.023z"/>
					<path style="fill:#91B3FA;" d="M1278.716,661.058c-0.089,1.88,0.372,3.806,1.45,5.522c2.62,4.174,5.193,8.473,7.658,12.777
						c2.62,4.581,8.461,6.173,13.041,3.551c4.583-2.619,6.18-8.463,3.549-13.043c-2.588-4.528-5.297-9.048-8.052-13.442
						c-2.804-4.471-8.706-5.824-13.174-3.019C1280.429,655.133,1278.859,658.037,1278.716,661.058z"/>
				</g>
				<g style="opacity:0.3;">
					<path style="fill:#91B3FA;" d="M1039.766,494.267c-0.219,4.608,2.93,8.822,7.59,9.798c4.823,1.008,9.707,2.135,14.512,3.35
						c5.119,1.293,10.316-1.807,11.609-6.924c1.298-5.14-1.809-10.316-6.925-11.609c-5.06-1.277-10.203-2.465-15.281-3.528
						c-5.167-1.081-10.232,2.232-11.314,7.398C1039.851,493.259,1039.79,493.766,1039.766,494.267z"/>
					<path style="fill:#91B3FA;" d="M592.763,821.786c0.507-5.254,5.179-9.102,10.437-8.594c5.254,0.509,9.091,5.175,8.591,10.435
						c-0.968,10.003-1.523,20.203-1.665,30.432c-0.055,5.253-4.413,9.498-9.691,9.425c-5.278-0.073-9.498-4.411-9.427-9.689
						c0.061-4.432,0.195-8.846,0.404-13.238C591.71,834.289,592.163,827.973,592.763,821.786z M602.151,895.159
						c5.237-0.641,10.005,3.086,10.646,8.324c1.235,10.059,2.904,20.174,4.969,30.065c1.093,5.158-2.235,10.231-7.403,11.311
						c-5.165,1.078-10.229-2.237-11.307-7.403c-2.175-10.414-3.934-21.062-5.23-31.647c-0.067-0.549-0.087-1.094-0.061-1.627
						C593.981,899.615,597.458,895.734,602.151,895.159z M601.316,770.408c2.461-10.345,5.398-20.728,8.734-30.858
						c1.651-5.014,7.054-7.74,12.07-6.09c5.013,1.651,7.732,7.052,6.088,12.069c-3.17,9.62-5.959,19.477-8.294,29.301
						c-1.223,5.135-6.375,8.309-11.513,7.088c-4.542-1.081-7.548-5.24-7.335-9.741C601.096,771.592,601.176,771,601.316,770.408z
						 M618.96,975.392c4.969-1.777,10.442,0.811,12.217,5.782c3.405,9.529,7.261,19.024,11.455,28.224
						c2.194,4.806,0.075,10.471-4.731,12.661c-4.802,2.19-10.469,0.073-12.66-4.729c-4.418-9.689-8.477-19.689-12.064-29.722
						c-0.432-1.213-0.609-2.454-0.551-3.667C612.804,980.189,615.204,976.735,618.96,975.392z M629.689,691.351
						c4.673-9.545,9.821-19.023,15.302-28.172c2.712-4.529,8.579-6.001,13.107-3.291c4.532,2.712,6.003,8.583,3.291,13.111
						c-5.204,8.692-10.094,17.694-14.531,26.759c-2.322,4.742-8.048,6.703-12.789,4.381c-3.532-1.73-5.521-5.349-5.346-9.041
						C628.783,693.833,629.097,692.559,629.689,691.351z M674.712,620.433c6.663-8.313,13.754-16.44,21.076-24.159
						c3.636-3.829,9.683-3.988,13.514-0.355c3.834,3.639,3.992,9.687,0.353,13.512c-6.957,7.334-13.696,15.058-20.029,22.956
						c-3.302,4.119-9.317,4.781-13.437,1.48c-2.481-1.99-3.707-4.966-3.567-7.918C672.715,624.003,673.401,622.068,674.712,620.433z
						 M734.122,561.009c8.319-6.668,17.014-13.058,25.836-18.993c4.382-2.947,10.318-1.783,13.266,2.596
						c2.95,4.386,1.783,10.32-2.596,13.265c-8.386,5.639-16.643,11.711-24.55,18.049c-4.119,3.301-10.135,2.638-13.435-1.48
						c-1.517-1.892-2.197-4.182-2.091-6.427C730.678,565.374,731.896,562.794,734.122,561.009z M805.08,515.961
						c9.574-4.687,19.461-9.019,29.384-12.874c4.92-1.912,10.46,0.526,12.371,5.448c1.909,4.912-0.53,10.457-5.45,12.369
						c-9.421,3.661-18.807,7.774-27.904,12.227c-4.741,2.321-10.464,0.36-12.784-4.382c-0.733-1.498-1.038-3.092-0.964-4.647
						C799.893,520.733,801.835,517.551,805.08,515.961z M884.243,487.591c10.347-2.456,20.936-4.501,31.476-6.079
						c5.221-0.782,10.089,2.817,10.869,8.038c0.777,5.204-2.815,10.086-8.036,10.868c-10.013,1.498-20.07,3.441-29.899,5.773
						c-5.134,1.22-10.287-1.957-11.505-7.092c-0.212-0.894-0.293-1.789-0.251-2.664
						C877.094,492.287,880.002,488.598,884.243,487.591z M967.617,477.307c7.836-0.107,15.772,0.027,23.585,0.398
						c2.831,0.134,5.648,0.3,8.461,0.495c5.264,0.365,9.345,4.871,8.872,10.195c-0.362,5.266-4.928,9.24-10.195,8.875
						c-2.671-0.185-5.355-0.344-8.044-0.471c-7.429-0.353-14.969-0.481-22.42-0.38c-5.277,0.073-9.614-4.149-9.685-9.427
						c-0.002-0.198,0-0.396,0.009-0.592C958.437,481.394,962.538,477.375,967.617,477.307z"/>
					<path style="fill:#91B3FA;" d="M648.717,1057.781c-0.09,1.898,0.382,3.84,1.474,5.565c2.772,4.37,5.688,8.764,8.668,13.06
						c3.009,4.339,8.964,5.416,13.301,2.407c4.337-3.01,5.419-8.96,2.407-13.301c-2.83-4.081-5.6-8.255-8.233-12.404
						c-2.824-4.457-8.73-5.78-13.189-2.953C650.413,1051.889,648.859,1054.779,648.717,1057.781z"/>
				</g>
				<g>
					<path style="fill:#91B3FA;" d="M796.965,1096.387c1.515,1.359,3.723,1.609,5.502,0.621l50.746-28.176
						c23.765,13.038,49.779,22.38,77.24,27.28l21.816,53.747c0.766,1.885,2.643,3.077,4.674,2.968l69.521-3.725
						c2.032-0.108,3.772-1.495,4.33-3.45l15.948-55.771c26.78-7.806,51.649-19.874,73.884-35.378l53.465,22.593
						c1.874,0.791,4.044,0.307,5.404-1.206l46.526-51.793c1.359-1.513,1.61-3.724,0.621-5.502l-28.177-50.745
						c13.039-23.764,22.382-49.779,27.281-77.241l53.747-21.816c1.886-0.765,3.078-2.642,2.969-4.674l-3.724-69.523
						c-0.109-2.032-1.496-3.77-3.451-4.329l-55.771-15.948c-7.806-26.781-19.874-51.649-35.378-73.884l22.593-53.465
						c0.792-1.874,0.308-4.044-1.206-5.404l-51.793-46.526c-1.513-1.359-3.723-1.608-5.501-0.622l-50.746,28.177
						c-23.764-13.039-49.778-22.38-77.24-27.28l-21.817-53.747c-0.764-1.885-2.642-3.078-4.673-2.969l-69.523,3.725
						c-2.032,0.109-3.77,1.495-4.329,3.451l-15.949,55.771c-26.78,7.806-51.649,19.875-73.884,35.378l-53.465-22.593
						c-1.873-0.792-4.044-0.308-5.404,1.206l-46.526,51.794c-1.359,1.513-1.609,3.723-0.621,5.501l28.177,50.746
						c-13.039,23.764-22.38,49.779-27.281,77.241l-53.747,21.816c-1.884,0.765-3.076,2.642-2.968,4.674l3.726,69.522
						c0.109,2.031,1.494,3.771,3.451,4.33l55.77,15.948c7.806,26.781,19.876,51.648,35.378,73.883l-22.593,53.465
						c-0.792,1.874-0.307,4.045,1.206,5.404L796.965,1096.387z"/>
					<g>
						<path style="fill:#BDD0FB;" d="M906.675,832.239c7.431-37.866,44.279-62.628,82.149-55.198
							c18.344,3.597,34.189,14.126,44.613,29.642c10.425,15.512,14.188,34.159,10.584,52.505
							c-7.431,37.866-44.279,62.628-82.149,55.199c-34.45-6.76-58.053-37.869-56.435-71.945
							C905.597,839.063,906.006,835.653,906.675,832.239z M1019.885,815.787c-7.994-11.897-20.141-19.967-34.207-22.728
							c-29.03-5.695-57.288,13.29-62.983,42.322c-5.708,29.039,13.29,57.288,42.324,62.985c29.03,5.695,57.288-13.29,62.983-42.322
							c0.516-2.633,0.833-5.269,0.958-7.901C1029.501,836.715,1026.38,825.456,1019.885,815.787z"/>
					</g>
					<g>
						<path style="fill:#BDD0FB;" d="M804.539,836.221c-0.278,5.852-0.263,11.753,0.054,17.683l0,0
							c0.099,1.866,0.23,3.732,0.389,5.595c0.789,9.185,2.308,18.293,4.532,27.183c0.03,0.121,0.06,0.242,0.09,0.363
							c0.087,0.343,0.175,0.687,0.266,1.03c0.172,0.668,0.352,1.335,0.531,2c0.476,1.75,2.02,2.923,3.74,3.007
							c0.418,0.02,0.847-0.026,1.272-0.141c2.175-0.591,3.45-2.837,2.863-5.01c-3.048-11.192-4.908-22.786-5.531-34.463
							c-3.117-58,24.473-110.669,68.537-142.194c24.507-17.537,54.113-28.53,86.372-30.257c5.657-0.304,11.288-0.32,16.87-0.053
							c37.567,1.787,73.081,16.319,101.435,41.791c32.572,29.258,51.801,69.45,54.144,113.169
							c4.829,90.293-64.66,167.616-154.909,172.451c-5.565,0.299-11.124,0.314-16.654,0.049
							c-23.963-1.141-47.411-7.513-68.637-18.741c-0.549-0.29-1.132-0.443-1.714-0.469c-1.529-0.073-3.039,0.724-3.802,2.168
							c-1.048,1.997-0.3,4.463,1.701,5.517c22.285,11.787,46.902,18.48,72.06,19.678c5.805,0.277,11.639,0.261,17.479-0.05
							c94.754-5.076,167.7-86.319,162.627-181.038c-2.459-45.899-22.646-88.09-56.841-118.805
							c-29.767-26.743-67.05-41.997-106.488-43.875c-5.86-0.278-11.771-0.261-17.707,0.055
							c-45.901,2.461-88.094,22.646-118.809,56.839C821.664,759.479,806.411,796.774,804.539,836.221z"/>
					</g>
				</g>
			</g>
			<g>
				<g style="opacity:0.3;">
					<path style="fill:#91B3FA;" d="M639.39,1540.367c-0.121,2.551,1.432,4.98,3.97,5.856c4.736,1.638,9.587,3.156,14.417,4.508
						c3.138,0.879,6.394-0.952,7.276-4.093c0.893-3.141-0.955-6.397-4.093-7.276c-4.602-1.289-9.226-2.734-13.746-4.297
						c-3.078-1.066-6.439,0.569-7.509,3.649C639.518,1539.262,639.416,1539.817,639.39,1540.367z"/>
					<path style="fill:#91B3FA;" d="M683.547,1550.603c0.487-3.223,3.491-5.444,6.717-4.959c8.138,1.22,16.433,2.038,24.65,2.428
						c1.733,0.082,3.474,0.144,5.22,0.19c3.256,0.088,5.829,2.799,5.744,6.058c-0.204,3.078-2.799,5.829-6.061,5.746
						c-1.827-0.05-3.648-0.115-5.462-0.201c-8.615-0.409-17.312-1.266-25.845-2.549c-3.02-0.452-5.161-3.122-5.02-6.11
						C683.499,1551.008,683.52,1550.807,683.547,1550.603z M750.097,1547.228c9.932-0.951,19.893-2.525,29.605-4.681
						c3.185-0.706,6.333,1.299,7.042,4.484c0.698,3.167-1.299,6.337-4.484,7.042c-10.179,2.261-20.622,3.912-31.036,4.908
						c-3.246,0.31-6.129-2.069-6.443-5.316c-0.027-0.284-0.03-0.57-0.017-0.849C744.901,1549.931,747.14,1547.512,750.097,1547.228z
						 M808.509,1534.235c9.382-3.35,18.649-7.325,27.554-11.817c2.909-1.467,6.461-0.297,7.927,2.612
						c1.471,2.921,0.305,6.461-2.61,7.93c-9.336,4.711-19.063,8.878-28.897,12.394c-3.07,1.095-6.452-0.502-7.547-3.573
						c-0.264-0.749-0.372-1.516-0.337-2.264C804.709,1537.2,806.19,1535.066,808.509,1534.235z M861.945,1507.287
						c8.286-5.557,16.305-11.681,23.817-18.195c2.468-2.136,6.195-1.87,8.329,0.594c2.128,2.458,1.87,6.189-0.591,8.326
						c-7.885,6.834-16.287,13.251-24.978,19.081c-2.707,1.817-6.377,1.091-8.194-1.616c-0.728-1.094-1.049-2.34-0.991-3.562
						C859.422,1510.111,860.33,1508.37,861.945,1507.287z M907.183,1468.11c6.683-7.402,12.967-15.285,18.687-23.434
						c1.87-2.667,5.553-3.312,8.223-1.44c2.67,1.873,3.321,5.554,1.44,8.224c-5.992,8.541-12.583,16.804-19.583,24.564
						c-2.187,2.418-5.919,2.61-8.337,0.427c-1.367-1.234-2.024-2.962-1.943-4.667
						C905.732,1470.468,906.233,1469.165,907.183,1468.11z M941.539,1419.139c4.677-8.796,8.846-17.965,12.392-27.259
						c1.16-3.044,4.575-4.573,7.619-3.41c3.044,1.163,4.568,4.563,3.413,7.622c-3.718,9.745-8.093,19.366-12.999,28.593
						c-1.533,2.876-5.106,3.971-7.982,2.441c-2.083-1.109-3.232-3.287-3.127-5.496
						C940.895,1420.785,941.114,1419.935,941.539,1419.139z M962.867,1363.276c2.368-9.645,4.161-19.567,5.325-29.494
						c0.384-3.237,3.317-5.553,6.554-5.172c3.237,0.378,5.505,3.303,5.178,6.553c-1.227,10.406-3.106,20.809-5.589,30.924
						c-0.779,3.166-3.976,5.104-7.142,4.327c-2.784-0.683-4.619-3.243-4.488-6.007
						C962.721,1364.033,962.774,1363.655,962.867,1363.276z M972.938,1267.323c3.234-0.418,6.191,1.864,6.609,5.098
						c1.157,8.951,1.841,18.12,2.038,27.225c0.038,1.384,0.053,2.761,0.063,4.141c0.111,3.243-2.612,5.918-5.88,5.928
						c-3.261,0.015-5.912-2.615-5.931-5.877c-0.003-1.293-0.022-2.59-0.057-3.91c-0.186-8.715-0.839-17.461-1.941-25.998
						c-0.046-0.352-0.059-0.701-0.043-1.041C967.93,1270.084,970.057,1267.694,972.938,1267.323z"/>
				</g>
				<g style="opacity:0.3;">
					<path style="fill:#91B3FA;" d="M472.185,1289.555c0.62-10.27,1.878-20.59,3.724-30.678c0.591-3.204,3.664-5.33,6.874-4.741
						c3.21,0.588,5.297,3.682,4.741,6.874c-1.766,9.618-2.961,19.463-3.553,29.26c-0.195,3.254-2.996,5.733-6.248,5.536
						c-3.228-0.196-5.695-2.951-5.542-6.17C472.183,1289.61,472.184,1289.581,472.185,1289.555z M477.721,1314.234
						c3.253-0.194,6.05,2.287,6.242,5.54c0.586,9.79,1.769,19.643,3.521,29.287c0.57,3.19-1.544,6.281-4.758,6.861
						c-3.208,0.583-6.275-1.544-6.862-4.752c-1.835-10.106-3.076-20.433-3.686-30.692c-0.013-0.217-0.015-0.427-0.004-0.641
						C472.315,1316.866,474.676,1314.415,477.721,1314.234z M483.342,1228.857c3.087-9.821,6.797-19.537,11.032-28.876
						c1.347-2.969,4.849-4.286,7.815-2.939c2.972,1.344,4.278,4.832,2.942,7.813c-4.042,8.91-7.581,18.175-10.53,27.544
						c-0.979,3.111-4.293,4.838-7.398,3.862c-2.616-0.823-4.253-3.295-4.129-5.91
						C483.099,1229.855,483.186,1229.355,483.342,1228.857z M487.129,1373.815c3.111-0.972,6.422,0.766,7.394,3.877
						c2.921,9.361,6.446,18.633,10.483,27.563c1.337,2.969,0.016,6.467-2.944,7.81c-2.973,1.342-6.471,0.025-7.813-2.948
						c-4.236-9.363-7.936-19.091-10.996-28.91c-0.21-0.68-0.293-1.367-0.261-2.038
						C483.105,1376.764,484.697,1374.575,487.129,1373.815z M508.829,1172.675c5.345-8.77,11.285-17.305,17.653-25.371
						c2.02-2.559,5.735-2.994,8.294-0.974c2.559,2.02,3.001,5.732,0.975,8.294c-6.079,7.691-11.74,15.831-16.835,24.198
						c-1.697,2.782-5.328,3.666-8.116,1.966c-1.908-1.161-2.923-3.238-2.824-5.325
						C508.021,1174.509,508.297,1173.55,508.829,1172.675z M547.055,1124.24c7.305-7.249,15.116-14.119,23.212-20.418
						c2.571-2.002,6.278-1.54,8.279,1.033c2.002,2.568,1.543,6.281-1.034,8.285c-7.719,6.008-15.169,12.563-22.141,19.481
						c-2.313,2.297-6.053,2.281-8.349-0.033c-1.212-1.223-1.782-2.843-1.706-4.441
						C545.385,1126.725,545.965,1125.321,547.055,1124.24z M595.782,1086.347c8.833-5.295,18.07-10.091,27.445-14.257
						c2.983-1.324,6.469,0.019,7.793,2.999c1.325,2.978-0.024,6.466-2.996,7.791c-8.943,3.971-17.749,8.545-26.167,13.597
						c-2.798,1.676-6.425,0.768-8.099-2.03c-0.626-1.037-0.889-2.186-0.835-3.309
						C593.013,1089.232,594.023,1087.404,595.782,1086.347z"/>
					<path style="fill:#91B3FA;" d="M507.965,1434.366c-0.054,1.138,0.22,2.302,0.857,3.348c2.629,4.315,5.399,8.57,8.23,12.652
						c1.859,2.677,5.538,3.345,8.218,1.487c2.668-1.862,3.339-5.535,1.486-8.218c-2.701-3.891-5.342-7.953-7.854-12.069
						c-1.697-2.784-5.332-3.664-8.113-1.967C509.052,1430.661,508.054,1432.474,507.965,1434.366z"/>
				</g>
				<g>
					<path style="fill:#91B3FA;" d="M616.839,1462.243c0.95,0.852,2.334,1.009,3.449,0.389l31.808-17.661
						c14.896,8.172,31.202,14.028,48.416,17.099l13.675,33.69c0.48,1.182,1.656,1.928,2.93,1.861l43.577-2.336
						c1.274-0.067,2.364-0.937,2.714-2.162l9.996-34.959c16.787-4.893,32.375-12.457,46.312-22.175l33.513,14.161
						c1.175,0.497,2.535,0.192,3.388-0.756l29.163-32.465c0.852-0.948,1.009-2.334,0.389-3.449l-17.661-31.807
						c8.173-14.896,14.029-31.203,17.1-48.417l33.69-13.675c1.182-0.48,1.929-1.656,1.861-2.929l-2.335-43.578
						c-0.068-1.274-0.938-2.363-2.163-2.714l-34.958-9.997c-4.893-16.787-12.457-32.375-22.176-46.311l14.162-33.513
						c0.496-1.174,0.193-2.535-0.756-3.387l-32.466-29.164c-0.948-0.852-2.333-1.008-3.448-0.389l-31.809,17.662
						c-14.895-8.173-31.202-14.029-48.415-17.1l-13.675-33.69c-0.479-1.182-1.656-1.929-2.929-1.861l-43.578,2.335
						c-1.273,0.068-2.363,0.937-2.714,2.163l-9.996,34.958c-16.787,4.893-32.375,12.458-46.312,22.176l-33.513-14.162
						c-1.174-0.497-2.534-0.193-3.388,0.756l-29.163,32.465c-0.852,0.949-1.009,2.334-0.39,3.449l17.662,31.808
						c-8.173,14.896-14.028,31.202-17.1,48.416l-33.69,13.674c-1.181,0.48-1.929,1.656-1.861,2.93l2.336,43.578
						c0.068,1.273,0.937,2.364,2.163,2.714l34.957,9.997c4.893,16.787,12.459,32.374,22.176,46.311l-14.162,33.513
						c-0.497,1.174-0.192,2.535,0.756,3.387L616.839,1462.243z"/>
					<g>
						<path style="fill:#BDD0FB;" d="M684.835,1296.521c2.293-11.708,9.012-21.819,18.914-28.47
							c9.896-6.653,21.795-9.052,33.501-6.753c24.159,4.739,39.927,28.216,35.223,52.418c-4.748,24.162-28.26,39.959-52.414,35.217
							c-11.705-2.295-21.816-9.011-28.468-18.911c-5.407-8.048-8.004-17.417-7.552-26.93
							C684.142,1300.906,684.408,1298.708,684.835,1296.521z M734.98,1272.883c-8.612-1.69-17.364,0.074-24.65,4.968
							c-7.279,4.892-12.221,12.331-13.911,20.94l0,0c-1.678,8.612,0.077,17.361,4.971,24.647c4.889,7.281,12.331,12.22,20.937,13.91
							c17.773,3.487,35.067-8.133,38.559-25.905c0.313-1.604,0.504-3.202,0.58-4.789
							C762.227,1290.66,751.146,1276.054,734.98,1272.883z"/>
					</g>
					<g>
						<path style="fill:#BDD0FB;" d="M618.247,1299.121c-0.177,3.731-0.165,7.501,0.035,11.308
							c0.403,7.56,1.575,15.086,3.491,22.389c0.089,0.328,0.177,0.655,0.266,0.982c0.688,2.532,2.922,4.228,5.409,4.349
							c0.604,0.029,1.225-0.037,1.839-0.204c3.146-0.855,4.985-4.104,4.142-7.246c-1.853-6.801-2.979-13.831-3.355-20.896l0-0.003
							c-0.022-0.388-0.038-0.778-0.054-1.163c-0.736-16.729,2.727-33.007,9.886-47.665c3.887-7.956,8.871-15.436,14.879-22.247
							c0.049-0.056,0.098-0.111,0.146-0.166c0.153-0.169,0.299-0.338,0.451-0.504c17.744-19.75,42.116-31.412,68.629-32.832
							c3.431-0.186,6.843-0.195,10.229-0.034c22.781,1.084,44.317,9.898,61.516,25.344c19.751,17.744,31.407,42.117,32.827,68.626
							c1.409,26.495-7.569,51.991-25.308,71.745c-17.744,19.75-42.116,31.413-68.629,32.832c-3.373,0.183-6.745,0.191-10.096,0.031
							c-14.535-0.693-28.751-4.556-41.622-11.365c-0.794-0.419-1.637-0.641-2.478-0.678c-2.211-0.105-4.396,1.047-5.499,3.135
							c-1.516,2.886-0.427,6.453,2.461,7.981c14.402,7.618,30.311,11.942,46.567,12.72c3.755,0.178,7.524,0.17,11.297-0.032
							c29.666-1.59,56.932-14.636,76.784-36.736c19.847-22.098,29.926-50.587,28.315-80.262
							c-1.588-29.663-14.63-56.929-36.734-76.779c-19.236-17.284-43.331-27.142-68.819-28.355c-3.783-0.179-7.605-0.171-11.44,0.035
							C665.953,1196.511,620.917,1242.866,618.247,1299.121z"/>
					</g>
				</g>
			</g>
		</g>
		<g>
			<g>
				<path style="fill:#BDD0FB;" d="M3192.635,600.847c-0.023-9.607-12.938-12.805-17.403-4.299
					c-43.172,82.234-163.129,294.318-298.894,391.5c-221.056,158.234-408.266,451.767-328.667,641.416
					C2547.672,1629.465,3195.126,1647.566,3192.635,600.847z"/>
				<path style="opacity:0.43;fill:#FFFFFF;" d="M3148.788,721.967c-0.831,2.811-1.74,5.065-2.611,7.532l-2.726,7.217l-5.606,14.358
					c-3.802,9.543-7.749,19.024-11.696,28.506c-7.963,18.933-16.16,37.766-24.53,56.524c-16.81,37.484-34.632,74.508-53.008,111.256
					c-18.325,36.777-37.679,73.042-57.793,108.881c-20.144,35.82-40.804,71.37-62.622,106.22
					c-43.491,69.773-90.819,137.248-142.723,201.108c-26.283,31.65-53.407,62.629-82.271,91.969
					c-29.063,29.122-59.381,57.022-91.595,82.587c-0.7,0.556-1.719,0.439-2.275-0.262c-0.542-0.683-0.444-1.669,0.211-2.233
					l0.017-0.014c31.085-26.699,60.678-55.02,88.82-84.732c28.228-29.638,54.707-60.89,80.333-92.784
					c25.616-31.918,49.941-64.862,73.507-98.331c23.558-33.487,45.718-67.933,67.677-102.493
					c43.637-69.328,83.554-140.959,121.467-213.613c18.881-36.372,37.03-73.129,54.523-110.199
					c8.776-18.522,17.383-37.125,25.758-55.833l12.34-28.156l6.023-14.135l2.93-7.093c0.922-2.339,1.953-4.837,2.676-6.917
					l0.119-0.344c0.291-0.838,1.205-1.281,2.043-0.99C3148.587,720.278,3149.027,721.151,3148.788,721.967z"/>
			</g>
			<g>
				<path style="fill:#91B3FA;" d="M2879.288,469.414c-2.023-8.966-14.749-9.262-17.147-0.388
					c-23.182,85.785-91.016,308.822-197.549,427.855c-173.459,193.813-287.127,506.919-173.286,667.432
					C2491.306,1564.313,3099.677,1446.331,2879.288,469.414z"/>
				<path style="opacity:0.43;fill:#FFFFFF;" d="M2863.604,591.651c-0.19,2.805-0.568,5.096-0.867,7.582l-1.041,7.308l-2.24,14.577
					c-1.56,9.704-3.268,19.381-4.977,29.057c-3.487,19.34-7.214,38.635-11.119,57.896c-7.881,38.508-16.808,76.795-26.306,114.942
					c-9.445,38.163-19.961,76.061-31.276,113.72c-11.347,37.647-23.232,75.149-36.345,112.241
					c-26.076,74.219-56.221,147.088-91.393,217.535c-17.956,35.029-36.837,69.608-57.683,103.018
					c-21.082,33.246-43.587,65.613-68.355,96.189c-0.549,0.677-1.542,0.781-2.219,0.233c-0.66-0.535-0.776-1.492-0.273-2.167
					l0.013-0.017c23.453-31.415,45.18-64.029,65.261-97.641c20.179-33.559,38.388-68.26,55.667-103.382
					c17.266-35.142,33.117-70.972,48.147-107.135c15.021-36.177,28.533-72.96,41.842-109.805
					c26.31-73.825,48.658-149.03,68.937-224.769c10.059-37.896,19.353-76,27.972-114.258c4.341-19.122,8.506-38.286,12.433-57.5
					l5.664-28.861l2.684-14.453l1.261-7.233c0.375-2.375,0.817-4.925,1.059-7.011l0.041-0.352c0.099-0.858,0.875-1.473,1.733-1.374
					C2863.056,590.089,2863.658,590.825,2863.604,591.651z"/>
			</g>
		</g>
		<path style="fill:#7D97F4;" d="M3138.733,3217.467H1859.056v-1539.88c0-89.701,72.717-162.417,162.417-162.417h1013.884
			c89.701,0,162.418,72.717,162.418,162.418v1480.839C3197.775,3191.033,3171.341,3217.467,3138.733,3217.467z"/>
		<g>
			
				<linearGradient id="SVGID_00000041285109951888469320000012148298400846835331_" gradientUnits="userSpaceOnUse" x1="2446.9172" y1="1712.639" x2="2473.3977" y2="1213.9252">
				<stop  offset="0" style="stop-color:#FF928E"/>
				<stop  offset="1" style="stop-color:#FE7062"/>
			</linearGradient>
			<polygon style="fill:url(#SVGID_00000041285109951888469320000012148298400846835331_);" points="2497.415,1449.872 
				2440.29,1449.872 2350.489,1185.717 2600.106,1170.557 			"/>
			
				<linearGradient id="SVGID_00000139993179245782165570000000780913033602619291_" gradientUnits="userSpaceOnUse" x1="2475.6697" y1="1214.6249" x2="2465.657" y2="658.8968">
				<stop  offset="0" style="stop-color:#FF928E"/>
				<stop  offset="1" style="stop-color:#FE7062"/>
			</linearGradient>
			<path style="fill:url(#SVGID_00000139993179245782165570000000780913033602619291_);" d="M2198.545,694.943
				c-0.282,22.295-0.282,458.824,221.317,529.713c221.599,70.89,321.693-298.46,313.75-561.506L2198.545,694.943z"/>
			
				<linearGradient id="SVGID_00000029013169356035132870000013778202753614234753_" gradientUnits="userSpaceOnUse" x1="2472.2324" y1="1456.1047" x2="2451.2209" y2="1800.1731">
				<stop  offset="0" style="stop-color:#FF928E"/>
				<stop  offset="1" style="stop-color:#FE7062"/>
			</linearGradient>
			
				<rect x="2291.714" y="1489.946" style="fill:url(#SVGID_00000029013169356035132870000013778202753614234753_);" width="354.276" height="43.013"/>
			
				<linearGradient id="SVGID_00000165214437645012945210000014727926519329885592_" gradientUnits="userSpaceOnUse" x1="2468.8525" y1="847.085" x2="2468.8525" y2="1322.7081">
				<stop  offset="0" style="stop-color:#FF928E"/>
				<stop  offset="1" style="stop-color:#FE7062"/>
			</linearGradient>
			<polygon style="fill:url(#SVGID_00000165214437645012945210000014727926519329885592_);" points="2645.99,1489.946 
				2291.714,1489.946 2381.376,1441.844 2556.329,1441.844 			"/>
			
				<linearGradient id="SVGID_00000183211818491254380740000007923785922363141042_" gradientUnits="userSpaceOnUse" x1="2468.6975" y1="803.2645" x2="2490.7646" y2="410.4711">
				<stop  offset="0" style="stop-color:#FF928E"/>
				<stop  offset="1" style="stop-color:#FE7062"/>
			</linearGradient>
			<path style="fill:url(#SVGID_00000183211818491254380740000007923785922363141042_);" d="M2172.865,633.005
				c-19.452,1.183-35.365,15.584-35.365,32.002v33.576c0,16.417,15.923,28.992,35.385,27.946l607.323-32.677
				c19.463-1.047,35.386-15.336,35.386-31.753v-38.35c0-16.418-15.915-28.882-35.366-27.698L2172.865,633.005z"/>
			
				<linearGradient id="SVGID_00000124130118756227438390000000967228845581213114_" gradientUnits="userSpaceOnUse" x1="2524.9998" y1="1215.3403" x2="3244.3821" y2="791.6544">
				<stop  offset="0" style="stop-color:#FF928E"/>
				<stop  offset="1" style="stop-color:#FE7062"/>
			</linearGradient>
			<path style="fill:url(#SVGID_00000124130118756227438390000000967228845581213114_);" d="M2576.789,1259.351
				c-14.154,0-26.365-8.943-28.01-21.067c-1.769-13.034,9.345-24.81,24.824-26.306c2.948-0.295,206.749-21.815,226.071-133.363
				c3.259-18.807,2.897-43.377-17.327-53.629c-16.692-8.466-44.021-5.775-63.561,6.256c-11.11,6.84-23.267,18.822-18.097,37.059
				c3.62,12.766-5.739,25.584-20.905,28.631c-15.159,3.044-30.389-4.832-34.009-17.598c-9.374-33.063,5.459-65.383,39.68-86.453
				c38.018-23.414,89.839-26.951,126.019-8.61c21.147,10.72,54.993,38.125,44.066,101.202
				c-10.804,62.368-62.884,112.33-150.607,144.481c-62.991,23.088-122.406,29.001-124.904,29.241
				C2578.942,1259.301,2577.86,1259.351,2576.789,1259.351z"/>
			
				<linearGradient id="SVGID_00000113334286804153433370000002195375818999580852_" gradientUnits="userSpaceOnUse" x1="2185.5151" y1="1208.7561" x2="2428.2517" y2="882.1649">
				<stop  offset="0" style="stop-color:#FF928E"/>
				<stop  offset="1" style="stop-color:#FE7062"/>
			</linearGradient>
			<path style="fill:url(#SVGID_00000113334286804153433370000002195375818999580852_);" d="M2365.414,1259.351
				c14.154,0,26.364-8.943,28.01-21.067c1.768-13.034-9.346-24.81-24.825-26.306c-2.948-0.295-206.75-21.815-226.072-133.363
				c-3.259-18.807-2.897-43.377,17.326-53.629c16.693-8.466,44.022-5.775,63.563,6.256c11.109,6.84,23.266,18.822,18.096,37.059
				c-3.619,12.766,5.738,25.584,20.904,28.631c15.16,3.044,30.389-4.832,34.009-17.598c9.375-33.063-5.459-65.383-39.679-86.453
				c-38.018-23.414-89.839-26.951-126.019-8.61c-21.147,10.72-54.993,38.125-44.066,101.202
				c10.803,62.368,62.883,112.33,150.606,144.481c62.992,23.088,122.406,29.001,124.904,29.241
				C2363.262,1259.301,2364.343,1259.351,2365.414,1259.351z"/>
			<path style="opacity:0.7;fill:#FFFFFF;" d="M2613.404,660.655c-2.434,0-4.471-1.907-4.604-4.368
				c-0.137-2.544,1.816-4.719,4.361-4.857l54.237-2.916c2.553-0.099,4.719,1.814,4.856,4.361c0.137,2.544-1.816,4.719-4.361,4.857
				l-54.237,2.916C2613.573,660.653,2613.488,660.655,2613.404,660.655z"/>
			<path style="opacity:0.7;fill:#FFFFFF;" d="M2198.522,682.977c-2.434,0-4.471-1.907-4.604-4.368
				c-0.137-2.544,1.816-4.719,4.361-4.857l324.019-17.432c2.533-0.149,4.719,1.816,4.856,4.361c0.137,2.545-1.816,4.719-4.361,4.857
				l-324.019,17.432C2198.691,682.975,2198.605,682.977,2198.522,682.977z"/>
			<path style="opacity:0.7;fill:#FFFFFF;" d="M2449.416,1175.172c-0.178,0-0.356-0.009-0.534-0.029
				c-58.674-6.75-105.58-54.528-139.412-142.008c-27.939-72.239-41.125-156.779-47.266-214.977
				c-0.266-2.535,1.571-4.807,4.106-5.075c2.54-0.241,4.807,1.571,5.075,4.106c10.543,99.907,49.044,333.888,178.551,348.782
				c2.533,0.293,4.35,2.581,4.059,5.114C2453.723,1173.437,2451.728,1175.172,2449.416,1175.172z"/>
			<path style="opacity:0.7;fill:#FFFFFF;" d="M2262.875,776.64c-2.413,0-4.442-1.875-4.602-4.316
				c-0.865-13.321-1.097-20.984-1.107-21.304c-0.077-2.549,1.929-4.674,4.476-4.751c2.731-0.169,4.677,1.929,4.751,4.476
				c0.002,0.077,0.239,7.84,1.093,20.979c0.165,2.544-1.764,4.74-4.307,4.906C2263.078,776.638,2262.977,776.64,2262.875,776.64z"/>
		</g>
		
			<linearGradient id="SVGID_00000090282283412049779140000010305445635194573971_" gradientUnits="userSpaceOnUse" x1="2454.2639" y1="1627.5052" x2="321.2782" y2="4884.939">
			<stop  offset="0" style="stop-color:#4F52FF"/>
			<stop  offset="1" style="stop-color:#4042E2"/>
		</linearGradient>
		<path style="fill:url(#SVGID_00000090282283412049779140000010305445635194573971_);" d="M2372.325,3217.467h-1166.75V2084.163
			c0-26.874,21.785-48.659,48.659-48.659h1069.431c26.874,0,48.659,21.785,48.659,48.659V3217.467z"/>
		<path style="fill:#7D97F4;" d="M1552.166,3217.467h-946.32c-32.608,0-59.042-26.434-59.042-59.042v-629.397
			c0-89.701,72.717-162.418,162.417-162.418h680.527c89.701,0,162.417,72.717,162.417,162.418V3217.467z"/>
		<g>
			
				<linearGradient id="SVGID_00000120549450326521117210000011494551631907857794_" gradientUnits="userSpaceOnUse" x1="-173.6038" y1="2175.0474" x2="392.7836" y2="1960.3888" gradientTransform="matrix(0.8056 -0.5925 0.5925 0.8056 -248.3117 435.9851)">
				<stop  offset="0" style="stop-color:#FEBBBA"/>
				<stop  offset="1" style="stop-color:#FF928E"/>
			</linearGradient>
			<path style="fill:url(#SVGID_00000120549450326521117210000011494551631907857794_);" d="M1160.539,1861.651
				c1.482,2.989-19.651,135.037-24.612,139.719c-3.046,2.875-7.606,3.227-11.778,3.584c-54.017,4.615-102.459,35.582-142.418,72.218
				c-39.95,36.629-73.751,79.569-113.929,115.948c-11.651,10.547-24.436,21.044-39.004,27.298
				c-17.715,7.603-29.044-0.204-43.966,2.159c-0.156,0.025-0.284,0.033-0.437,0.054c10.754,23.094,22.197,45.882,34.091,68.465
				c7.765-12.46,16.757-23.961,28.008-33.387c19.546-16.376,44.18-25.073,67.792-34.699
				c94.057-38.353,178.023-98.146,270.547-140.558c35.42-16.236,39.61-59.436,55.641-92.75
				c22.035-45.793,65.503-105.777,59.531-144.248C1262.344,1852.65,1194.15,1843.228,1160.539,1861.651z"/>
			
				<linearGradient id="SVGID_00000056414803631866432430000011724004751787780773_" gradientUnits="userSpaceOnUse" x1="3080.5715" y1="-740.4001" x2="3044.4851" y2="-404.9307" gradientTransform="matrix(0.485 0.8745 -0.8606 0.4773 -1204.0361 -80.6)">
				<stop  offset="0" style="stop-color:#09005D"/>
				<stop  offset="1" style="stop-color:#1A0F91"/>
			</linearGradient>
			<path style="fill:url(#SVGID_00000056414803631866432430000011724004751787780773_);" d="M781.093,2218.928l-17.122,3.573
				c-4.591,0.958-8.323,4.345-9.68,8.834c-12.734,42.135-19.165,76.445-15.396,116.014c1.677,17.602,11.679,43.754,22.283,57.903
				c10.84,14.462,21.037,24.209,25.38,19.718l7.82-4.745c5.359-3.252,8.341-9.321,7.639-15.551L781.093,2218.928z"/>
			
				<linearGradient id="SVGID_00000054960957234631847640000002253737737557360517_" gradientUnits="userSpaceOnUse" x1="3121.304" y1="-712.9173" x2="2970.6692" y2="-383.8763" gradientTransform="matrix(0.485 0.8745 -0.8745 0.485 -1214.5571 -74.8252)">
				<stop  offset="0" style="stop-color:#FF928E"/>
				<stop  offset="1" style="stop-color:#FE7062"/>
			</linearGradient>
			<path style="fill:url(#SVGID_00000054960957234631847640000002253737737557360517_);" d="M810.328,2223.621l-29.235-4.693
				c-5.416-0.869-8.193,3.214-11.177,7.817c-13.778,21.257-21.355,68.102-19.21,123.216c0.581,14.93,0.568,27.788,9.311,39.904
				c24.215,33.559,33.389,34.463,42.081,25.62l34.989-148.884C821.432,2256.645,810.638,2240.771,810.328,2223.621z"/>
			
				<linearGradient id="SVGID_00000155111678487591453030000010135967175661574832_" gradientUnits="userSpaceOnUse" x1="1324.4038" y1="1615.1907" x2="893.8397" y2="2431.2585">
				<stop  offset="0" style="stop-color:#09005D"/>
				<stop  offset="1" style="stop-color:#1A0F91"/>
			</linearGradient>
			<path style="fill:url(#SVGID_00000155111678487591453030000010135967175661574832_);" d="M1325.306,1668.48
				c-26.069-10.334-56.627-15.23-83.756-6.08c-30.209,10.189-37.17,41.782-46.052,69.653
				c-13.587,42.639-25.229,85.897-34.932,129.584c-0.008,0.005-0.018,0.009-0.029,0.014c0.005,0.011,0.003,0.061,0.008,0.075
				c-0.503,2.264-16.446,91.437-16.49,98.946c0.446,0.018,0.894,0.044,1.34,0.065c-4.028,21.797-7.736,38.998-9.47,40.634
				c-3.045,2.875-19.501-4.85-23.674-4.493c-54.018,4.615-90.563,43.659-130.522,80.296c-16.827,15.428-32.556,31.984-48.136,48.69
				c2.482,28.781,14.249,52.611,49.449,65.063c67.7-35.005,132.333-76.636,201.789-108.473c35.42-16.237,39.61-59.436,55.641-92.75
				c1.345-2.796,2.774-5.646,4.261-8.539c0.292,0.132,14.647-25.827,21.375-39.012c9.888-17.782,32.587-66.162,35.732-72.869
				c15.68-33.434,30.523-67.237,44.754-101.312C1365.456,1722.828,1383.7,1691.627,1325.306,1668.48z"/>
			
				<linearGradient id="SVGID_00000083055354554718882250000015268357702531895215_" gradientUnits="userSpaceOnUse" x1="1196.1843" y1="443.9687" x2="1099.3367" y2="1344.2902">
				<stop  offset="0" style="stop-color:#09005D"/>
				<stop  offset="1" style="stop-color:#1A0F91"/>
			</linearGradient>
			<path style="fill:url(#SVGID_00000083055354554718882250000015268357702531895215_);" d="M1278.444,896.929
				c0,0-101.351-78.245-166.811,38.196c-65.459,116.441-93.204,151.32-112.572,120.142c-0.995,7.155-1.492,18.878,4.182,29.9
				c10.793,20.968,36.141,24.296,49.434,26.042c38.489,5.053,73.943-7.524,81.739-17.587
				C1246.216,949.32,1277.816,944.303,1278.444,896.929z"/>
			
				<linearGradient id="SVGID_00000071551505421782768880000016575089074953602959_" gradientUnits="userSpaceOnUse" x1="1896.3231" y1="1252.8964" x2="1114.8256" y2="1309.7319" gradientTransform="matrix(0.9973 -0.0737 0.0737 0.9973 119.499 48.0971)">
				<stop  offset="0" style="stop-color:#FEBBBA"/>
				<stop  offset="1" style="stop-color:#FF928E"/>
			</linearGradient>
			<path style="fill:url(#SVGID_00000071551505421782768880000016575089074953602959_);" d="M1737.894,1244.5
				c57.343-14.899,110.427-60.072,143.695-109.255c3.822-5.651,8.162-11.915,14.767-13.174c6.78-1.292,13.249,3.213,18.682,7.633
				c10.542,8.578,39.176,25.968,30.279,43.943c-5.797,11.712-35.894,23.842-46.721,31.452c6.042-4.247,5.454-20.374,3.472-26.103
				c-3.066,5.032-6.085,11.124-10.41,15.491c-4.436,4.48-10.098,7.421-15.663,10.292c-12.517,6.458-20.74,14.083-31.906,22.054
				c-25.11,24.592-49.437,50.993-80.442,67.92c-26.105,14.251-55.487,20.943-84.683,26.112c-12.383,2.192-24.967,4.144-37.501,2.904
				c-11.52-1.139-22.629-4.938-33.623-8.712c-33.134-11.372-66.551-24.111-95.651-44.437c-13.88-9.695-26.641-21.098-37.38-34.378
				c-11.71-14.48-24.749-34.577-26.068-53.83c-1.154-16.853,4.765-39.499,24.484-27.33c43.324,26.736,80.575,61.965,128.316,79.653
				C1645.142,1250.891,1692.807,1256.214,1737.894,1244.5z"/>
			
				<linearGradient id="SVGID_00000140011498798734607040000000133790501044802477_" gradientUnits="userSpaceOnUse" x1="1072.3173" y1="1616.3743" x2="1503.479" y2="877.239">
				<stop  offset="0" style="stop-color:#FEBBBA"/>
				<stop  offset="1" style="stop-color:#FF928E"/>
			</linearGradient>
			<path style="fill:url(#SVGID_00000140011498798734607040000000133790501044802477_);" d="M1242.484,1260.638
				c-8.212,0.65-16.376,1.347-24.45,1.996c-32.322,2.6-55.894,22.163-78.375,44.404c-11.534,11.411-22.248,23.656-31.957,36.656
				c-32.75,43.857-51.885,99.543-44.544,153.784c3.742,27.648,14.058,53.928,24.667,79.733c6.726,16.36,13.79,32.963,25.395,46.312
				c13.885,15.972,33.462,26.326,46.716,42.826c2.37,2.951,4.627,6.48,4.132,10.232c-0.513,3.892-3.795,6.744-6.851,9.21
				c-11.817,9.536-23.634,19.071-35.451,28.606c-1.606,1.296-3.359,2.652-5.42,2.773c-3.215,0.19-5.732-2.611-7.654-5.196
				c-9.637-12.962-22.996-30.717-25.268-46.947c5.186-1.402,17.45,10.048,20.799,4.081c-18.837-41.387-56.312-71.875-76.047-112.83
				c-12.749-26.457-17.459-55.984-21.109-85.125c-3.619-28.904-6.286-58.679,1.279-86.81c3.687-13.712,9.723-26.671,16.166-39.324
				c35.217-69.161,85.054-132.902,148.614-178.12c46.784-33.284,96.653-52.418,153.594-54.097
				c22.874-0.675,46.079-1.316,68.307,4.121c21.477,5.253,37.24,14.237,56.651,24.682c25.395,13.664,55.671,35.105,69.225,60.937
				c-31.986,5.493-30.642,20.915-50.538,35.246c-9.044,6.515-20.355,8.862-31.323,10.848
				c-35.257,6.385-74.615,14.746-110.222,10.996C1300.638,1256.664,1271.266,1258.36,1242.484,1260.638z"/>
			
				<linearGradient id="SVGID_00000115500387808779221070000006454588698764551825_" gradientUnits="userSpaceOnUse" x1="1776.6129" y1="1195.8512" x2="1240.9104" y2="1661.4614">
				<stop  offset="0" style="stop-color:#09005D"/>
				<stop  offset="1" style="stop-color:#1A0F91"/>
			</linearGradient>
			<path style="fill:url(#SVGID_00000115500387808779221070000006454588698764551825_);" d="M1268.034,1491.13
				c-11.246,23.111-74.04,123.387-76.78,139.894c-2.738,16.507,7.342,40.268,21.574,52.351
				c10.838,9.201,106.305,31.437,143.975,21.602c28.398-7.415,74.205-122.869,68.273-167.39c-1.088-8.161-1.226-16.367-0.699-24.553
				C1369.577,1510.645,1323.246,1500.562,1268.034,1491.13z"/>
			
				<linearGradient id="SVGID_00000057132924517340775970000012374993363101517234_" gradientUnits="userSpaceOnUse" x1="1730.2778" y1="1780.7195" x2="2052.6599" y2="2189.3101">
				<stop  offset="0" style="stop-color:#FEBBBA"/>
				<stop  offset="1" style="stop-color:#FF928E"/>
			</linearGradient>
			<path style="fill:url(#SVGID_00000057132924517340775970000012374993363101517234_);" d="M1870.616,1968.751
				c-0.911-0.772-1.82-1.544-2.73-2.316c-30.726-24.117-33.548-53.602-41.968-88.883c-9.428-39.506-19.279-78.911-29.549-118.208
				c-0.59-2.255-1.199-4.504-1.791-6.758c-23.158,7.861-49.807,10.447-75.657,11.254c10.904,23.019,49.719,122.919,62.008,147.358
				c8.65,17.203,26.233,60.76,21.974,71.063C1802.001,1984.443,1844.96,1978.758,1870.616,1968.751z"/>
			
				<linearGradient id="SVGID_00000062907801859638176020000009744104471308000958_" gradientUnits="userSpaceOnUse" x1="1802.3666" y1="725.6473" x2="1542.0117" y2="1052.76">
				<stop  offset="0" style="stop-color:#FF928E"/>
				<stop  offset="1" style="stop-color:#FE7062"/>
			</linearGradient>
			<path style="fill:url(#SVGID_00000062907801859638176020000009744104471308000958_);" d="M1223.078,1137.545
				c24.67-15.699,27.63,38.393,19.405,123.093l26.294,235.308c32.472,26.92,119.758,40.886,155.6,20.537
				c17.066-101.712,72.918-236.222,62.519-266.894c-17.875-33.409-23.116-67.929-21.889-100.312
				c-9.755-12.993-40.308-22.178-69.981-32.354l-68.308-4.121C1295.022,1112.379,1265.683,1112.788,1223.078,1137.545z"/>
			<g>
				
					<linearGradient id="SVGID_00000048484339004776192600000009459995733942278039_" gradientUnits="userSpaceOnUse" x1="-1237.2687" y1="1292.5549" x2="-1267.824" y2="1096.493" gradientTransform="matrix(-0.9973 0.0737 0.0737 0.9973 25.4728 54.5626)">
					<stop  offset="0" style="stop-color:#FEBBBA"/>
					<stop  offset="1" style="stop-color:#FF928E"/>
				</linearGradient>
				<path style="fill:url(#SVGID_00000048484339004776192600000009459995733942278039_);" d="M1420.645,1033.341
					c-0.687,3.091-29.27,101.117-30.933,102.814c-1.664,1.698-49.587,7.843-73.379-5.961l48.053-114.036L1420.645,1033.341z"/>
				
					<linearGradient id="SVGID_00000134949873850424859080000007001894045312690068_" gradientUnits="userSpaceOnUse" x1="-2852.4836" y1="264.4267" x2="-2646.5706" y2="404.292" gradientTransform="matrix(-0.9999 0.0171 0.0171 0.9999 -1388.1543 709.9029)">
					<stop  offset="0" style="stop-color:#FEBBBA"/>
					<stop  offset="1" style="stop-color:#FF928E"/>
				</linearGradient>
				<path style="fill:url(#SVGID_00000134949873850424859080000007001894045312690068_);" d="M1399.731,876.257
					c0,0,42.704,17.179,72.579,77.953c29.876,60.774,8.831,89.43-18.145,93.775c-26.976,4.346-67.426,4.445-110.879-34.401
					C1299.835,974.737,1344.253,855.977,1399.731,876.257z"/>
				
					<linearGradient id="SVGID_00000009587242175469591150000005827175247345958079_" gradientUnits="userSpaceOnUse" x1="4721.7065" y1="121.7769" x2="4212.8545" y2="731.455" gradientTransform="matrix(0.9999 -0.0171 0.0171 0.9999 -3268.4204 741.7551)">
					<stop  offset="0" style="stop-color:#09005D"/>
					<stop  offset="1" style="stop-color:#1A0F91"/>
				</linearGradient>
				<path style="fill:url(#SVGID_00000009587242175469591150000005827175247345958079_);" d="M1371.483,980.384
					c0,0-33.518-89.09,45.934-91.507l18.923,12.75c0,0,10.326-37.631-37.937-60.536c-48.264-22.906-101.331-13.127-120.597,51.699
					c-19.264,64.825-6.633,106.257,27.778,136.526c34.41,30.271,52.152-3.253,52.152-3.253s-23.32-30.232-16.073-45.797
					c7.249-15.565,23.549,7.938,23.549,7.938L1371.483,980.384z"/>
			</g>
			
				<linearGradient id="SVGID_00000003790960881854849320000007307886193352542882_" gradientUnits="userSpaceOnUse" x1="1902.8392" y1="1341.0775" x2="1367.1366" y2="1806.6877">
				<stop  offset="0" style="stop-color:#09005D"/>
				<stop  offset="1" style="stop-color:#1A0F91"/>
			</linearGradient>
			<path style="fill:url(#SVGID_00000003790960881854849320000007307886193352542882_);" d="M1796.369,1759.344
				c-12.681-48.518-26.003-96.868-39.961-145.035c-8.544-29.486-10.557-61.749-25.946-88.941
				c-23.448-41.425-88.34-37.968-145.078-27.16c-65.916,7.109-121.743,9.874-187.863,17.072
				c-64.521,7.022-131.979,15.386-179.366,64.832c-20.483,21.371-33.204,52.69-24.647,81.026
				c8.36,27.673,35.214,46.566,63.261,53.57c43.322,10.817,95.117,3.221,137.255-9.614c86.224-26.263,181.398-78.84,260.009-120.31
				c-0.882,35.237-7.578,64.314,8.881,96.96c21.683,43.01,54.8,88.229,74.414,132.227c21.796-5.613,45.058-19.321,65.575-29.073
				C1800.718,1776.382,1798.591,1767.851,1796.369,1759.344z M1653.518,1581.027c0.203,0.012,0.408,0.008,0.612,0.024
				c-0.027,0.644-0.029,1.259-0.05,1.897C1653.895,1582.297,1653.706,1581.666,1653.518,1581.027z"/>
			
				<linearGradient id="SVGID_00000142152133823503917460000006181048739952652715_" gradientUnits="userSpaceOnUse" x1="487.2899" y1="2149.0232" x2="449.978" y2="2495.885" gradientTransform="matrix(0.6541 -0.7564 0.7564 0.6541 -156.7508 810.1878)">
				<stop  offset="0" style="stop-color:#09005D"/>
				<stop  offset="1" style="stop-color:#1A0F91"/>
			</linearGradient>
			<path style="fill:url(#SVGID_00000142152133823503917460000006181048739952652715_);" d="M1803.388,2002.742l9.453,15.022
				c2.541,4.037,7.06,6.418,11.824,6.18c43.794-2.192,85.756-7.62,121.343-24.147c10.126-4.703,18.835-11.972,25.71-20.769
				c17.488-22.377,32.724-47.61,24.398-51.345l-15.418-12.331L1803.388,2002.742z"/>
			
				<linearGradient id="SVGID_00000065033293738573022810000002679637770299565698_" gradientUnits="userSpaceOnUse" x1="514.1678" y1="2211.2422" x2="360.8328" y2="2546.1809" gradientTransform="matrix(0.6541 -0.7564 0.7564 0.6541 -156.7508 810.1878)">
				<stop  offset="0" style="stop-color:#FF928E"/>
				<stop  offset="1" style="stop-color:#FE7062"/>
			</linearGradient>
			<path style="fill:url(#SVGID_00000065033293738573022810000002679637770299565698_);" d="M1797.729,1973.678l5.659,29.064
				c1.048,5.384,5.148,9.652,10.497,10.869c24.701,5.618,72.251,2.156,123.258-18.833c13.817-5.686,25.631-15.441,33.997-27.821
				c23.17-34.288,20.853-46.49,9.559-51.606l-138.673,18.945C1838.067,1952.423,1813.725,1967.483,1797.729,1973.678z"/>
			
				<linearGradient id="SVGID_00000023255714122278890680000015872141058135551398_" gradientUnits="userSpaceOnUse" x1="1859.3867" y1="771.0293" x2="1599.0327" y2="1098.141">
				<stop  offset="0" style="stop-color:#FF928E"/>
				<stop  offset="1" style="stop-color:#FE7062"/>
			</linearGradient>
			<path style="fill:url(#SVGID_00000023255714122278890680000015872141058135551398_);" d="M1465.007,1149.277
				c-7.26,35.107,1.431,72.35,21.888,111.171l48.943,34.345c14.09-39.705,22.602-76.603,10.303-103.034L1465.007,1149.277z"/>
			
				<linearGradient id="SVGID_00000116229940772990033410000010513563356716674955_" gradientUnits="userSpaceOnUse" x1="1672.8931" y1="622.5951" x2="1412.5393" y2="949.7065">
				<stop  offset="0" style="stop-color:#FF928E"/>
				<stop  offset="1" style="stop-color:#FE7062"/>
			</linearGradient>
			<path style="fill:url(#SVGID_00000116229940772990033410000010513563356716674955_);" d="M1152.698,1174.587
				c-9.693,33.116,7.793,70.441,31.678,108.759l61.542-22.707c17.035-59.354,19.311-106.681-9.963-128.29L1152.698,1174.587z"/>
		</g>
	</g>
</g>
</svg>
