<?xml version="1.0" encoding="utf-8"?>
<!-- Generator: Adobe Illustrator 27.5.0, SVG Export Plug-In . SVG Version: 6.00 Build 0)  -->
<svg version="1.1" xmlns="http://www.w3.org/2000/svg" xmlns:xlink="http://www.w3.org/1999/xlink" x="0px" y="0px"
	 viewBox="0 0 3710 3710" style="enable-background:new 0 0 3710 3710;" xml:space="preserve">
<g id="Background">
	<g>
		<g>
			<rect style="fill:#FFFFFF;" width="3710" height="3710"/>
		</g>
	</g>
</g>
<g id="Illustration">
	<g>
		<linearGradient id="SVGID_1_" gradientUnits="userSpaceOnUse" x1="3564.4514" y1="4036.543" x2="1103.8032" y2="980.5722">
			<stop  offset="0" style="stop-color:#DAE3FE"/>
			<stop  offset="1" style="stop-color:#E9EFFD"/>
		</linearGradient>
		<path style="fill:url(#SVGID_1_);" d="M2887.511,2831.378c-56.52,59.502-109.999,97.874-152.251,128.191
			c-496.671,356.366-1084.364,252.488-1209.265,227.119c-184.44-37.461-540.959-109.872-798.715-412.988
			c-389.964-458.59-329.241-1181.086-26.758-1658.015c55.329-87.239,347.592-571.433,941.615-649.082
			c359.496-46.992,778.554,47.786,1082.023,302.033C3361.169,1302.324,3315.82,2380.469,2887.511,2831.378z"/>
		
			<linearGradient id="SVGID_00000109716307528328239270000009345218834219112372_" gradientUnits="userSpaceOnUse" x1="2700.0334" y1="2612.6384" x2="4261.2173" y2="776.5594">
			<stop  offset="0" style="stop-color:#FF928E"/>
			<stop  offset="1" style="stop-color:#FE7062"/>
		</linearGradient>
		<path style="fill:url(#SVGID_00000109716307528328239270000009345218834219112372_);" d="M3255.923,3249.396H2215.49V1906.835
			c0-22.326,18.099-40.424,40.424-40.424h959.585c22.326,0,40.424,18.098,40.424,40.424V3249.396z"/>
		<g>
			<g>
				<g style="opacity:0.3;">
					<path style="fill:#91B3FA;" d="M779.867,1051.195c-3.762,1.449-8.09-0.15-9.962-3.82c-4.097-8.025-7.905-16.349-11.32-24.737
						c-1.661-4.081,0.299-8.736,4.379-10.397c0.049-0.019,0.097-0.037,0.145-0.056c4.045-1.557,8.61,0.404,10.251,4.437
						c3.244,7.97,6.862,15.876,10.753,23.5c2.003,3.923,0.446,8.73-3.479,10.732
						C780.383,1050.983,780.126,1051.095,779.867,1051.195z M755.376,986.159c-0.291,0.112-0.593,0.208-0.903,0.288
						c-4.268,1.089-8.614-1.488-9.703-5.757c-2.236-8.769-4.12-17.72-5.597-26.603c-0.723-4.346,2.2-8.44,6.559-9.18
						c4.346-0.722,8.455,2.217,9.177,6.56c1.405,8.444,3.195,16.947,5.322,25.281C761.241,980.705,759.097,984.726,755.376,986.159z
						 M745.815,917.348c-0.829,0.319-1.726,0.504-2.664,0.528c-4.404,0.109-8.065-3.369-8.177-7.773
						c-0.23-9.027-0.069-18.178,0.478-27.197c0.27-4.398,4.053-7.741,8.446-7.479c4.397,0.267,7.746,4.049,7.479,8.446
						c-0.52,8.565-0.673,17.252-0.455,25.826C751.01,913.164,748.874,916.17,745.815,917.348z M751.881,848.112
						c-1.37,0.527-2.901,0.683-4.446,0.369c-4.317-0.875-7.107-5.087-6.232-9.404c1.799-8.857,4.001-17.741,6.545-26.407
						c1.244-4.222,5.674-6.642,9.902-5.405c4.226,1.241,6.646,5.675,5.405,9.902c-2.417,8.23-4.51,16.669-6.216,25.085
						C756.277,845.024,754.34,847.166,751.881,848.112z M773.234,781.969c-1.921,0.74-4.125,0.74-6.148-0.174
						c-4.017-1.812-5.802-6.537-3.989-10.551c3.708-8.216,7.821-16.391,12.226-24.29c2.142-3.85,7-5.233,10.85-3.086
						c3.847,2.145,5.229,7.002,3.085,10.853c-4.187,7.509-8.096,15.278-11.62,23.086
						C776.739,779.798,775.124,781.242,773.234,781.969z M808.685,722.201c-2.488,0.958-5.398,0.649-7.682-1.076
						c-3.515-2.657-4.212-7.657-1.558-11.174c5.442-7.204,11.262-14.266,17.298-20.984c2.946-3.278,7.988-3.547,11.266-0.602
						c3.276,2.942,3.546,7.987,0.602,11.264c-5.735,6.385-11.265,13.092-16.436,19.938
						C811.246,720.801,810.027,721.685,808.685,722.201z M1074.644,599.444c-1.031,0.397-2.159,0.584-3.333,0.515
						c-8.555-0.505-17.249-0.644-25.836-0.41c-4.403,0.12-8.071-3.353-8.19-7.755c-0.122-4.404,3.351-8.072,7.756-8.192
						c9.044-0.247,18.2-0.102,27.209,0.429c4.399,0.26,7.753,4.036,7.493,8.434C1079.554,595.691,1077.474,598.355,1074.644,599.444
						z M856.468,671.809c-3.088,1.189-6.72,0.364-8.97-2.31c-2.838-3.372-2.404-8.403,0.966-11.24
						c6.908-5.815,14.154-11.4,21.536-16.6c3.612-2.52,8.578-1.677,11.116,1.927c2.537,3.601,1.673,8.578-1.928,11.117
						c-7.011,4.937-13.891,10.24-20.451,15.761C858.039,671.05,857.272,671.499,856.468,671.809z M1005.256,603.196
						c-0.491,0.189-1.008,0.335-1.547,0.425c-8.457,1.423-16.964,3.233-25.286,5.372c-4.268,1.096-8.616-1.474-9.713-5.74
						c-1.095-4.266,1.464-8.634,5.74-9.713c8.756-2.25,17.708-4.154,26.607-5.654c4.345-0.731,8.461,2.198,9.192,6.541
						C1010.889,598.233,1008.722,601.862,1005.256,603.196z M914.311,633.353c-3.757,1.446-8.078-0.145-9.955-3.807
						c-2.011-3.921-0.462-8.727,3.457-10.741c8.026-4.116,16.339-7.941,24.707-11.363c0.051-0.023,0.105-0.044,0.157-0.064
						c4.039-1.555,8.598,0.399,10.245,4.423c1.669,4.079-0.282,8.737-4.361,10.404c-7.948,3.254-15.843,6.888-23.469,10.799
						C914.836,633.134,914.574,633.252,914.311,633.353z"/>
					<path style="fill:#91B3FA;" d="M1130.033,607.791c-1.466,0.564-3.113,0.705-4.755,0.302c-3.995-0.979-8.076-1.889-12.133-2.711
						c-4.317-0.872-7.112-5.081-6.238-9.398c0.871-4.319,5.081-7.118,9.4-6.237c4.267,0.861,8.559,1.82,12.763,2.849
						c4.278,1.047,6.9,5.367,5.852,9.643C1134.277,604.878,1132.388,606.884,1130.033,607.791z"/>
				</g>
				<g style="opacity:0.3;">
					<path style="fill:#91B3FA;" d="M1324.917,753.278c-3.593,1.383-7.758-0.004-9.755-3.439c-2.065-3.556-4.241-7.129-6.465-10.616
						c-2.369-3.716-1.278-8.647,2.437-11.015c3.731-2.378,8.648-1.276,11.016,2.437c2.341,3.673,4.632,7.435,6.808,11.178
						c2.213,3.809,0.919,8.691-2.889,10.906C1325.693,752.946,1325.308,753.128,1324.917,753.278z"/>
					<path style="fill:#91B3FA;" d="M1168.344,1199.401c-3.425,1.319-6.886,2.584-10.381,3.797
						c-4.163,1.443-8.707-0.761-10.151-4.923c-1.444-4.162,0.774-8.729,4.921-10.152c8.066-2.798,16.001-5.917,23.671-9.311
						c4.035-1.777,8.739,0.037,10.522,4.065c1.784,4.031-0.038,8.743-4.067,10.525
						C1178.115,1195.502,1173.231,1197.52,1168.344,1199.401z M1117.324,1214.248c-0.416,0.16-0.852,0.288-1.305,0.379
						c-8.726,1.754-17.623,3.156-26.444,4.169c-4.376,0.503-8.332-2.638-8.834-7.013c-0.502-4.378,2.643-8.347,7.016-8.835
						c8.378-0.962,16.829-2.296,25.122-3.96c4.319-0.868,8.523,1.93,9.391,6.247
						C1123.046,1209.103,1120.884,1212.877,1117.324,1214.248z M1219.977,1173.794c-3.51,1.351-7.594,0.063-9.643-3.252
						c-2.317-3.749-1.156-8.664,2.591-10.982c7.169-4.43,14.245-9.228,21.033-14.266c3.543-2.62,8.535-1.884,11.16,1.653
						c2.625,3.54,1.884,8.536-1.654,11.161c-7.149,5.303-14.602,10.357-22.151,15.023
						C1220.882,1173.399,1220.433,1173.618,1219.977,1173.794z M1049.185,1220.254c-0.945,0.364-1.975,0.55-3.049,0.526
						c-8.89-0.207-17.878-0.796-26.714-1.751c-4.379-0.474-7.545-4.407-7.071-8.787c0.473-4.382,4.404-7.549,8.788-7.073
						c8.389,0.906,16.924,1.467,25.367,1.662c4.404,0.1,7.892,3.756,7.789,8.159
						C1054.218,1216.319,1052.112,1219.127,1049.185,1220.254z M1273.776,1131.643c-2.879,1.108-6.268,0.484-8.566-1.86
						c-3.085-3.146-3.035-8.197,0.112-11.282c6.016-5.895,11.862-12.134,17.381-18.539c2.875-3.338,7.912-3.714,11.251-0.836
						c3.336,2.876,3.71,7.91,0.835,11.248c-5.809,6.745-11.965,13.312-18.299,19.521
						C1275.688,1130.679,1274.761,1131.263,1273.776,1131.643z M1317.023,1078.706c-2.301,0.886-4.981,0.696-7.209-0.747
						c-3.697-2.396-4.753-7.335-2.357-11.033c4.594-7.091,8.943-14.459,12.925-21.896c2.074-3.887,6.907-5.351,10.797-3.269
						c3.884,2.08,5.346,6.913,3.268,10.799c-4.192,7.828-8.768,15.58-13.603,23.041
						C1319.894,1077.07,1318.541,1078.121,1317.023,1078.706z M1347.702,1017.6c-1.751,0.674-3.743,0.737-5.641,0.032
						c-4.129-1.532-6.235-6.124-4.701-10.254c2.944-7.928,5.586-16.064,7.85-24.188c1.183-4.242,5.578-6.726,9.827-5.54
						c4.243,1.185,6.724,5.582,5.54,9.827c-2.385,8.548-5.164,17.114-8.261,25.455
						C1351.487,1015.164,1349.763,1016.806,1347.702,1017.6z M1364.322,951.263c-1.213,0.467-2.556,0.643-3.935,0.456
						c-4.365-0.593-7.422-4.612-6.829-8.977c1.139-8.375,1.932-16.891,2.358-25.316c0.223-4.4,3.975-7.788,8.367-7.566
						c4.401,0.222,7.788,3.97,7.565,8.37c-0.448,8.874-1.283,17.843-2.482,26.659
						C1368.96,947.878,1366.949,950.251,1364.322,951.263z M1365.974,882.869c-0.682,0.263-1.412,0.434-2.176,0.501
						c-4.388,0.384-8.258-2.864-8.64-7.251c-0.735-8.398-1.837-16.876-3.28-25.202c-0.752-4.342,2.172-8.469,6.499-9.22
						c4.341-0.753,8.47,2.158,9.222,6.5c1.518,8.764,2.679,17.69,3.451,26.531C1371.367,878.351,1369.208,881.624,1365.974,882.869z
						 M1352.57,815.828c-0.153,0.059-0.309,0.112-0.467,0.163c-4.199,1.33-8.683-0.997-10.011-5.197
						c-1.877-5.929-3.959-11.868-6.189-17.661c-0.807-2.097-1.638-4.181-2.486-6.248c-1.672-4.077,0.277-8.738,4.353-10.408
						c4.094-1.773,8.735,0.276,10.406,4.35c0.893,2.177,1.764,4.366,2.614,6.573c2.346,6.092,4.536,12.344,6.51,18.579
						C1358.581,810.021,1356.474,814.325,1352.57,815.828z"/>
					<path style="fill:#91B3FA;" d="M981.213,1211.056c-1.48,0.57-3.142,0.706-4.795,0.294c-4.19-1.048-8.436-2.204-12.622-3.437
						c-4.227-1.244-6.644-5.679-5.4-9.904c1.246-4.226,5.675-6.646,9.904-5.4c3.976,1.17,8.01,2.268,11.988,3.264
						c4.272,1.066,6.872,5.398,5.803,9.672C985.435,1208.165,983.554,1210.155,981.213,1211.056z"/>
				</g>
				<g>
					<path style="fill:#91B3FA;" d="M958.012,1120.844c1.381,0.788,3.111,0.614,4.307-0.434l34.116-29.919
						c20.314,6.034,41.736,8.872,63.53,8.076l25.555,37.461c0.896,1.314,2.528,1.914,4.062,1.496l52.506-14.339
						c1.535-0.42,2.634-1.766,2.738-3.352l2.966-45.25c19.173-10.393,36.179-23.724,50.606-39.247l44.588,8.425
						c1.563,0.295,3.141-0.433,3.929-1.815l26.988-47.267c0.789-1.382,0.614-3.112-0.435-4.307l-29.918-34.116
						c6.034-20.314,8.872-41.737,8.076-63.53l37.462-25.555c1.314-0.896,1.914-2.527,1.495-4.062l-14.339-52.507
						c-0.419-1.534-1.765-2.634-3.353-2.737l-45.251-2.967c-10.392-19.173-23.724-36.179-39.246-50.606l8.425-44.589
						c0.295-1.562-0.434-3.141-1.815-3.929l-47.267-26.988c-1.381-0.79-3.111-0.614-4.307,0.434l-34.116,29.919
						c-20.314-6.035-41.736-8.872-63.53-8.076l-25.555-37.462c-0.896-1.314-2.527-1.914-4.062-1.496l-52.507,14.34
						c-1.535,0.419-2.634,1.765-2.738,3.352l-2.966,45.25c-19.173,10.391-36.179,23.724-50.606,39.246l-44.588-8.425
						c-1.563-0.296-3.142,0.433-3.93,1.815l-26.988,47.267c-0.789,1.381-0.614,3.111,0.434,4.307l29.918,34.116
						c-6.034,20.314-8.872,41.737-8.076,63.53l-37.462,25.555c-1.314,0.896-1.915,2.527-1.495,4.062l14.339,52.506
						c0.419,1.534,1.765,2.634,3.353,2.739l45.25,2.966c10.392,19.172,23.724,36.178,39.246,50.606l-8.424,44.588
						c-0.296,1.563,0.433,3.141,1.815,3.93L958.012,1120.844z"/>
					<g>
						<path style="fill:#BDD0FB;" d="M1072.503,950.888c-24.888,9.583-53.779-0.278-67.271-24.179
							c-14.83-26.274-5.52-59.709,20.751-74.539c12.727-7.188,27.49-8.982,41.566-5.063c14.078,3.918,25.789,13.086,32.971,25.813
							c14.83,26.274,5.52,59.709-20.751,74.539C1077.4,948.796,1074.97,949.938,1072.503,950.888z M1037.883,860.63
							c-1.922,0.74-3.801,1.624-5.627,2.654c-20.142,11.369-27.279,37.008-15.911,57.149c11.37,20.143,37.006,27.291,57.151,15.912
							c20.142-11.368,27.279-37.008,15.911-57.149c-5.509-9.759-14.486-16.787-25.281-19.793
							C1055.353,856.962,1046.23,857.416,1037.883,860.63z"/>
					</g>
					<path style="fill:#BDD0FB;" d="M1101.941,1024.23c-4.274,1.646-8.657,3.086-13.135,4.31l0,0
						c-1.409,0.386-2.826,0.748-4.248,1.088c-7.01,1.674-14.142,2.788-21.286,3.325c-0.097,0.007-0.195,0.015-0.292,0.022
						c-0.276,0.02-0.553,0.039-0.83,0.056c-0.538,0.037-1.077,0.068-1.615,0.098c-1.416,0.078-2.666-0.78-3.151-2.036
						c-0.117-0.305-0.189-0.635-0.208-0.978c-0.096-1.759,1.256-3.258,3.013-3.357c9.055-0.491,18.116-1.963,26.934-4.374
						c43.807-11.956,76.103-45.387,88.655-85.84c6.985-22.5,7.859-47.174,1.204-71.537c-1.166-4.272-2.539-8.455-4.11-12.531
						c-10.568-27.437-30.088-50.216-55.966-64.99c-29.724-16.973-64.28-21.354-97.298-12.337
						c-68.191,18.63-108.474,89.217-89.859,157.377c1.147,4.203,2.504,8.332,4.06,12.37c6.742,17.501,17.239,33.333,30.793,46.322
						c0.35,0.336,0.607,0.731,0.769,1.156c0.43,1.117,0.211,2.433-0.674,3.354c-1.224,1.269-3.238,1.32-4.513,0.095
						c-14.229-13.637-25.252-30.258-32.33-48.632c-1.634-4.239-3.057-8.572-4.263-12.983
						c-19.544-71.562,22.797-145.68,94.333-165.217c34.664-9.467,70.939-4.866,102.144,12.952
						c27.168,15.51,47.66,39.423,58.755,68.227c1.648,4.28,3.09,8.67,4.315,13.153c9.466,34.667,4.868,70.942-12.949,102.147
						C1154.675,992.643,1130.752,1013.136,1101.941,1024.23z"/>
				</g>
			</g>
			<g>
				<g style="opacity:0.3;">
					<path style="fill:#91B3FA;" d="M620.403,1306.866c-1.774,0.683-3.853,0.155-5.066-1.433c-2.266-2.962-4.474-6.033-6.561-9.128
						c-1.356-2.011-0.825-4.74,1.187-6.099c2.01-1.366,4.742-0.824,6.099,1.187c1.988,2.949,4.092,5.877,6.255,8.704
						c1.474,1.924,1.106,4.682-0.819,6.159C621.153,1306.518,620.785,1306.719,620.403,1306.866z"/>
					<path style="fill:#91B3FA;" d="M602.418,1278.254c-2.078,0.8-4.466-0.087-5.492-2.115c-2.904-5.728-5.547-11.671-7.853-17.66
						c-0.486-1.261-0.958-2.532-1.421-3.811c-0.823-2.285,0.513-4.763,2.64-5.628c2.282-0.824,4.8,0.359,5.625,2.638
						c0.441,1.223,0.893,2.438,1.357,3.643c2.2,5.714,4.72,11.381,7.488,16.844c1.098,2.165,0.233,4.807-1.93,5.906
						C602.693,1278.138,602.556,1278.2,602.418,1278.254z M586.931,1235.346c-0.194,0.075-0.397,0.139-0.604,0.187
						c-2.367,0.539-4.723-0.94-5.264-3.306c-1.736-7.589-3.015-15.353-3.802-23.073c-0.247-2.415,1.524-4.568,3.925-4.817
						c2.416-0.245,4.569,1.509,4.816,3.924c0.751,7.366,1.972,14.771,3.626,22.009
						C590.122,1232.426,588.937,1234.574,586.931,1235.346z M582.312,1189.965c-0.52,0.2-1.087,0.303-1.678,0.292
						c-2.425-0.055-4.346-2.069-4.291-4.495c0.18-7.77,0.846-15.617,1.987-23.315c0.355-2.403,2.583-4.056,4.991-3.701
						c2.398,0.355,4.057,2.59,3.702,4.988c-1.087,7.342-1.725,14.82-1.894,22.231
						C585.084,1187.799,583.924,1189.344,582.312,1189.965z M588.991,1144.835c-0.849,0.327-1.805,0.392-2.748,0.134
						c-2.337-0.649-3.71-3.072-3.06-5.41c2.083-7.505,4.648-14.943,7.629-22.113c0.933-2.24,3.508-3.295,5.743-2.368
						c2.241,0.93,3.302,3.5,2.37,5.744c-2.843,6.832-5.291,13.931-7.276,21.085C591.263,1143.303,590.246,1144.352,588.991,1144.835
						z M606.489,1102.707c-1.185,0.456-2.56,0.397-3.751-0.28c-2.109-1.197-2.847-3.878-1.651-5.989
						c3.842-6.762,8.136-13.353,12.766-19.585c1.445-1.954,4.198-2.357,6.146-0.909c1.948,1.447,2.355,4.201,0.909,6.146
						c-4.417,5.949-8.514,12.234-12.177,18.688C608.208,1101.696,607.404,1102.354,606.489,1102.707z M633.679,1066.106
						c-1.535,0.591-3.344,0.289-4.615-0.922c-1.755-1.674-1.818-4.454-0.145-6.21c5.369-5.626,11.141-10.97,17.154-15.878
						c1.89-1.532,4.648-1.252,6.183,0.626c1.534,1.878,1.254,4.648-0.625,6.18c-5.735,4.682-11.235,9.774-16.354,15.138
						C634.814,1065.526,634.265,1065.88,633.679,1066.106z M668.982,1037.272c-1.922,0.74-4.16,0.044-5.294-1.763
						c-1.29-2.055-0.67-4.767,1.384-6.059c6.564-4.123,13.473-7.886,20.536-11.19c2.22-0.993,4.817-0.075,5.842,2.123
						c1.028,2.197,0.078,4.811-2.118,5.841c-6.74,3.147-13.329,6.737-19.587,10.668
						C669.498,1037.046,669.243,1037.172,668.982,1037.272z M732.437,1012.242c-0.236,0.091-0.486,0.164-0.745,0.214
						c-6.288,1.221-12.619,2.808-18.819,4.718c-0.941,0.284-1.861,0.574-2.775,0.875c-2.309,0.751-4.788-0.506-5.54-2.813
						c-0.758-2.31,0.494-4.861,2.811-5.542c0.977-0.316,1.953-0.628,2.94-0.925c6.478-1.993,13.115-3.657,19.709-4.936
						c2.383-0.462,4.687,1.092,5.149,3.474C735.578,1009.428,734.388,1011.49,732.437,1012.242z"/>
				</g>
				<g style="opacity:0.3;">
					<path style="fill:#91B3FA;" d="M836.676,1366.263c-2.238,0.862-4.762-0.236-5.656-2.47c-0.901-2.251,0.194-4.81,2.447-5.71
						c6.783-2.713,13.457-5.862,19.837-9.362c2.124-1.14,4.799-0.391,5.966,1.739c1.167,2.129,0.386,4.798-1.739,5.966
						c-6.693,3.667-13.689,6.972-20.798,9.815C836.714,1366.248,836.694,1366.256,836.676,1366.263z M815.344,1373.342
						c-0.148,0.057-0.298,0.105-0.454,0.147c-7.39,1.972-14.975,3.513-22.544,4.584c-2.404,0.337-4.625-1.332-4.964-3.734
						c-0.343-2.406,1.346-4.624,3.733-4.968c7.223-1.02,14.46-2.492,21.513-4.371c2.343-0.626,4.751,0.768,5.375,3.112
						C818.588,1370.304,817.409,1372.546,815.344,1373.342z M876.003,1344.684c-1.818,0.7-3.948,0.122-5.142-1.533
						c-1.417-1.965-0.972-4.71,0.996-6.13c5.927-4.277,11.644-8.947,16.991-13.889c1.793-1.642,4.562-1.536,6.208,0.249
						c1.646,1.78,1.536,4.562-0.246,6.209c-5.606,5.179-11.6,10.075-17.815,14.556
						C876.681,1344.373,876.348,1344.551,876.003,1344.684z M770.897,1379.596c-0.466,0.18-0.971,0.282-1.501,0.293
						c-7.652,0.137-15.39-0.198-22.997-0.998c-2.414-0.252-4.164-2.415-3.912-4.829c0.255-2.406,2.417-4.158,4.828-3.909
						c7.253,0.761,14.629,1.079,21.925,0.95c2.425-0.042,4.428,1.89,4.47,4.315C773.745,1377.314,772.571,1378.952,770.897,1379.596
						z M908.945,1314.24c-1.451,0.559-3.156,0.328-4.423-0.747c-1.853-1.571-2.08-4.343-0.511-6.193
						c4.717-5.558,9.141-11.464,13.15-17.559c1.335-2.031,4.06-2.589,6.087-1.254c2.026,1.334,2.589,4.06,1.254,6.087
						c-4.207,6.387-8.844,12.582-13.788,18.411C910.221,1313.565,909.607,1313.985,908.945,1314.24z M933.623,1276.782
						c-1.111,0.428-2.389,0.405-3.537-0.165c-2.172-1.081-3.059-3.718-1.978-5.89c3.254-6.545,6.14-13.343,8.576-20.203
						c0.813-2.29,3.327-3.483,5.61-2.671c2.287,0.811,3.481,3.321,2.669,5.606c-2.554,7.194-5.577,14.321-8.987,21.179
						C935.467,1275.662,934.612,1276.401,933.623,1276.782z M948.617,1234.486c-0.781,0.301-1.654,0.384-2.533,0.185
						c-2.369-0.527-3.859-2.877-3.331-5.246c1.597-7.13,2.766-14.421,3.477-21.669c0.24-2.409,2.388-4.179,4.802-3.941
						c2.415,0.238,4.18,2.385,3.943,4.803c-0.748,7.598-1.973,15.246-3.644,22.726
						C950.997,1232.834,949.943,1233.976,948.617,1234.486z"/>
					<path style="fill:#91B3FA;" d="M726.059,1374.88c-0.791,0.305-1.677,0.384-2.566,0.179c-3.664-0.847-7.318-1.807-10.865-2.85
						c-2.326-0.686-3.66-3.129-2.975-5.457c0.691-2.321,3.128-3.655,5.457-2.974c3.381,0.997,6.869,1.911,10.365,2.722
						c2.364,0.547,3.837,2.908,3.289,5.271C728.422,1373.244,727.375,1374.374,726.059,1374.88z"/>
				</g>
				<g>
					<path style="fill:#91B3FA;" d="M709.074,1320.604c0.824,0.47,1.856,0.367,2.569-0.259l20.357-17.852
						c12.121,3.6,24.904,5.294,37.907,4.819l15.248,22.353c0.535,0.784,1.508,1.142,2.424,0.893l31.33-8.556
						c0.916-0.25,1.572-1.054,1.634-2.001l1.77-27c11.44-6.201,21.588-14.156,30.196-23.418l26.605,5.027
						c0.933,0.176,1.874-0.259,2.345-1.083l16.104-28.204c0.47-0.825,0.366-1.857-0.259-2.57l-17.852-20.357
						c3.601-12.121,5.294-24.904,4.819-37.908l22.353-15.248c0.784-0.535,1.142-1.508,0.893-2.423l-8.556-31.33
						c-0.25-0.916-1.053-1.572-2-1.634l-27.001-1.77c-6.201-11.44-14.156-21.588-23.418-30.196l5.027-26.606
						c0.176-0.932-0.259-1.874-1.083-2.344l-28.204-16.104c-0.824-0.471-1.856-0.366-2.569,0.259l-20.357,17.853
						c-12.121-3.601-24.904-5.294-37.907-4.819l-15.249-22.353c-0.535-0.784-1.508-1.143-2.424-0.893l-31.33,8.556
						c-0.916,0.25-1.571,1.053-1.634,2l-1.77,27c-11.44,6.201-21.588,14.156-30.197,23.418l-26.605-5.027
						c-0.933-0.177-1.875,0.259-2.345,1.083l-16.103,28.203c-0.47,0.824-0.367,1.856,0.259,2.57l17.852,20.357
						c-3.601,12.121-5.294,24.904-4.819,37.908l-22.354,15.248c-0.783,0.534-1.142,1.508-0.891,2.424l8.556,31.33
						c0.25,0.916,1.053,1.572,2,1.634l27.001,1.77c6.201,11.44,14.156,21.587,23.417,30.196l-5.027,26.605
						c-0.176,0.933,0.259,1.874,1.083,2.345L709.074,1320.604z"/>
					<g>
						<path style="fill:#BDD0FB;" d="M777.556,1219.76c-6.614,2.547-13.841,2.907-20.792,0.972
							c-8.551-2.381-15.663-7.95-20.025-15.681c-9.006-15.952-3.353-36.26,12.602-45.273c15.995-8.991,36.271-3.35,45.277,12.606
							c4.365,7.731,5.457,16.698,3.075,25.247c-2.38,8.553-7.948,15.666-15.682,20.028
							C780.566,1218.472,779.076,1219.175,777.556,1219.76z M756.907,1165.899c-1.103,0.425-2.187,0.934-3.247,1.531
							c-11.736,6.629-15.894,21.567-9.269,33.305c3.209,5.683,8.441,9.784,14.729,11.532c6.293,1.752,12.884,0.942,18.575-2.26l0,0
							c5.685-3.21,9.783-8.443,11.534-14.73c1.752-6.293,0.948-12.888-2.263-18.576
							C780.939,1166.024,768.027,1161.617,756.907,1165.899z"/>
					</g>
					<path style="fill:#BDD0FB;" d="M795.768,1265.305c-2.594,0.999-5.26,1.873-7.996,2.624c-5.435,1.486-11.026,2.42-16.633,2.777
						c-0.252,0.014-0.504,0.028-0.756,0.043c-1.95,0.107-3.671-1.074-4.339-2.803c-0.162-0.42-0.261-0.874-0.286-1.347
						c-0.132-2.422,1.731-4.483,4.149-4.623c5.238-0.283,10.468-1.135,15.547-2.524l0.002-0.001
						c0.279-0.075,0.558-0.156,0.834-0.234c11.99-3.398,22.678-9.656,31.355-18.146c4.71-4.609,8.827-9.881,12.231-15.72
						c0.028-0.047,0.055-0.095,0.083-0.142c0.083-0.147,0.169-0.291,0.25-0.437c9.796-17.16,12.326-37.107,7.12-56.168
						c-0.672-2.468-1.465-4.879-2.371-7.234c-6.101-15.838-17.37-28.987-32.31-37.519c-17.16-9.796-37.106-12.323-56.165-7.117
						c-19.046,5.209-34.954,17.523-44.754,34.679c-9.796,17.159-12.326,37.107-7.12,56.168c0.661,2.426,1.445,4.809,2.342,7.139
						c3.893,10.105,9.952,19.243,17.776,26.74c0.482,0.463,0.836,1.007,1.059,1.592c0.592,1.537,0.29,3.35-0.927,4.619
						c-1.684,1.747-4.458,1.813-6.214,0.13c-8.754-8.389-15.534-18.615-19.891-29.916c-1.005-2.61-1.882-5.275-2.623-7.988
						c-5.824-21.328-2.994-43.644,7.968-62.843c10.962-19.195,28.726-32.986,50.066-38.798c21.325-5.825,43.64-2.997,62.839,7.968
						c16.714,9.541,29.321,24.253,36.146,41.973c1.013,2.63,1.901,5.332,2.655,8.09
						C857.079,1207.575,834.881,1250.245,795.768,1265.305z"/>
				</g>
			</g>
		</g>
		<path style="fill:#91B3FA;" d="M2612.457,3250.527H1609.728V2193.661c0-22.326,18.099-40.424,40.424-40.424h921.88
			c22.326,0,40.424,18.099,40.424,40.424V3250.527z"/>
		
			<linearGradient id="SVGID_00000085213773170332060520000005635082001692896404_" gradientUnits="userSpaceOnUse" x1="2156.1907" y1="2099.3706" x2="3737.8647" y2="239.1937">
			<stop  offset="0" style="stop-color:#FF928E"/>
			<stop  offset="1" style="stop-color:#FE7062"/>
		</linearGradient>
		<path style="fill:url(#SVGID_00000085213773170332060520000005635082001692896404_);" d="M1907.596,3255h-864.03v-695.491
			c0-22.326,18.099-40.424,40.424-40.424h783.181c22.326,0,40.424,18.099,40.424,40.424V3255z"/>
		<path style="fill:#91B3FA;" d="M1332.247,3255H468.217v-503.227c0-22.326,18.098-40.424,40.424-40.424h783.181
			c22.326,0,40.424,18.098,40.424,40.424V3255z"/>
		<g>
			<g>
				
					<linearGradient id="SVGID_00000024001587670328446510000006174869859444959635_" gradientUnits="userSpaceOnUse" x1="3279.854" y1="251.9849" x2="-514.6369" y2="4971.7847">
					<stop  offset="0" style="stop-color:#4F52FF"/>
					<stop  offset="1" style="stop-color:#4042E2"/>
				</linearGradient>
				
					<circle style="fill:url(#SVGID_00000024001587670328446510000006174869859444959635_);" cx="2518.169" cy="1199.412" r="736.922"/>
				<g>
					
						<linearGradient id="SVGID_00000136400281455697816560000012466358524139502758_" gradientUnits="userSpaceOnUse" x1="2992.7148" y1="569.375" x2="1576.5913" y2="2449.5083">
						<stop  offset="0" style="stop-color:#4F52FF"/>
						<stop  offset="1" style="stop-color:#4042E2"/>
					</linearGradient>
					
						<circle style="fill:url(#SVGID_00000136400281455697816560000012466358524139502758_);" cx="2518.169" cy="1199.412" r="628.935"/>
					
						<linearGradient id="SVGID_00000023959812856595127440000003039844143419665338_" gradientUnits="userSpaceOnUse" x1="1872.8149" y1="1199.4119" x2="3163.5227" y2="1199.4119">
						<stop  offset="0" style="stop-color:#DAE3FE"/>
						<stop  offset="1" style="stop-color:#E9EFFD"/>
					</linearGradient>
					<path style="fill:url(#SVGID_00000023959812856595127440000003039844143419665338_);" d="M2518.169,1844.765
						c-172.38,0-334.443-67.129-456.335-189.019c-121.89-121.892-189.019-283.953-189.019-456.333
						c0-172.381,67.129-334.443,189.019-456.334c121.892-121.89,283.955-189.019,456.335-189.019s334.443,67.129,456.334,189.019
						c121.89,121.892,189.019,283.953,189.019,456.334c0,172.38-67.129,334.441-189.019,456.333
						C2852.612,1777.636,2690.549,1844.765,2518.169,1844.765z M2518.169,586.895c-337.744,0-612.518,274.775-612.518,612.517
						s274.774,612.516,612.518,612.516s612.517-274.774,612.517-612.516S2855.913,586.895,2518.169,586.895z"/>
				</g>
				<g>
					
						<linearGradient id="SVGID_00000100340782737145244630000011358827288527127699_" gradientUnits="userSpaceOnUse" x1="3447.7202" y1="-34.7186" x2="2031.5989" y2="1845.4116">
						<stop  offset="0" style="stop-color:#4F52FF"/>
						<stop  offset="1" style="stop-color:#4042E2"/>
					</linearGradient>
					
						<circle style="fill:url(#SVGID_00000100340782737145244630000011358827288527127699_);" cx="2518.169" cy="1199.412" r="383.429"/>
					
						<linearGradient id="SVGID_00000160884874270861729250000010016268498019496075_" gradientUnits="userSpaceOnUse" x1="2118.3215" y1="1199.4113" x2="2918.0161" y2="1199.4113">
						<stop  offset="0" style="stop-color:#DAE3FE"/>
						<stop  offset="1" style="stop-color:#E9EFFD"/>
					</linearGradient>
					<path style="fill:url(#SVGID_00000160884874270861729250000010016268498019496075_);" d="M2518.169,1599.258
						c-220.477,0-399.847-179.37-399.847-399.846c0-220.477,179.37-399.848,399.847-399.848s399.847,179.371,399.847,399.848
						C2918.016,1419.888,2738.646,1599.258,2518.169,1599.258z M2518.169,832.401c-202.371,0-367.011,164.641-367.011,367.012
						c0,202.37,164.64,367.009,367.011,367.009c202.371,0,367.011-164.64,367.011-367.009
						C2885.18,997.042,2720.54,832.401,2518.169,832.401z"/>
				</g>
				<g>
					
						<linearGradient id="SVGID_00000157992843970005424170000006470889062963722648_" gradientUnits="userSpaceOnUse" x1="3684.0442" y1="-348.4769" x2="2267.9246" y2="1531.651">
						<stop  offset="0" style="stop-color:#4F52FF"/>
						<stop  offset="1" style="stop-color:#4042E2"/>
					</linearGradient>
					
						<circle style="fill:url(#SVGID_00000157992843970005424170000006470889062963722648_);" cx="2518.169" cy="1199.412" r="148.551"/>
					
						<linearGradient id="SVGID_00000008856126841511431670000010390838433890784935_" gradientUnits="userSpaceOnUse" x1="2353.1995" y1="1199.4119" x2="2683.1379" y2="1199.4119">
						<stop  offset="0" style="stop-color:#DAE3FE"/>
						<stop  offset="1" style="stop-color:#E9EFFD"/>
					</linearGradient>
					<path style="fill:url(#SVGID_00000008856126841511431670000010390838433890784935_);" d="M2518.169,1364.382
						c-90.965,0-164.969-74.005-164.969-164.969c0-90.965,74.004-164.971,164.969-164.971c90.965,0,164.969,74.006,164.969,164.971
						C2683.138,1290.377,2609.134,1364.382,2518.169,1364.382z M2518.169,1067.278c-72.859,0-132.133,59.275-132.133,132.134
						c0,72.859,59.274,132.133,132.133,132.133c72.859,0,132.133-59.274,132.133-132.133
						C2650.302,1126.554,2591.028,1067.278,2518.169,1067.278z"/>
				</g>
			</g>
			<g>
				
					<linearGradient id="SVGID_00000096025117881497741900000015969969594524490657_" gradientUnits="userSpaceOnUse" x1="8.1662" y1="4853.0654" x2="-154.9363" y2="5515.667" gradientTransform="matrix(-0.7325 -0.6808 0.6808 -0.7325 -945.3974 4727.5684)">
					<stop  offset="0" style="stop-color:#09005D"/>
					<stop  offset="1" style="stop-color:#1A0F91"/>
				</linearGradient>
				<polygon style="fill:url(#SVGID_00000096025117881497741900000015969969594524490657_);" points="3132.017,533.631 
					3146.951,547.511 2621.336,1113.004 2606.402,1099.123 				"/>
				
					<linearGradient id="SVGID_00000069356924571294472210000016842210160145148290_" gradientUnits="userSpaceOnUse" x1="2843.2239" y1="-67.3368" x2="2343.2295" y2="2270.4819">
					<stop  offset="0" style="stop-color:#E1473D"/>
					<stop  offset="1" style="stop-color:#E9605A"/>
				</linearGradient>
				<path style="fill:url(#SVGID_00000069356924571294472210000016842210160145148290_);" d="M2615.336,1063.988
					c7.963-8.568,48.353,28.974,40.389,37.541l-140.367,118.897c-5.186,4.393-12.357-2.273-8.355-7.766L2615.336,1063.988z"/>
				<path style="fill:#91B3FA;" d="M3146.651,547.834l73.66,4.612l-97.073,104.438c-31.806,34.218-77.282,52.366-123.908,49.446l0,0
					L3146.651,547.834z"/>
				<path style="fill:#91B3FA;" d="M3131.717,533.954l-9.977-73.128l-97.073,104.438c-31.805,34.218-46.585,80.898-40.27,127.186
					l0,0L3131.717,533.954z"/>
			</g>
		</g>
		<g>
			<g>
				
					<linearGradient id="SVGID_00000044885925075217866880000014953600387486615175_" gradientUnits="userSpaceOnUse" x1="929.5378" y1="2437.3682" x2="960.9296" y2="2437.3682" gradientTransform="matrix(0.9914 0.1312 -0.1312 0.9914 55.9688 -96.9526)">
					<stop  offset="0" style="stop-color:#4F52FF"/>
					<stop  offset="1" style="stop-color:#4042E2"/>
				</linearGradient>
				<path style="fill:url(#SVGID_00000044885925075217866880000014953600387486615175_);" d="M684.643,2382.249
					c3.412-16.343,10.339-27.243,17.135-34.394c-12.824,2.388-18.66,10.912-24.757,34.965
					c-7.251,28.608-23.764,106.484-27.673,123.686c-3.909,17.202,2.142,26.681,6.927,33.079c1.575,2.105,4.556,1.622,8.284-0.579
					c-5.739-9.74-7.305-19.11-7.704-26.709C656.226,2500.313,676.694,2420.323,684.643,2382.249z"/>
				
					<linearGradient id="SVGID_00000103961937804802310220000015514083535250769542_" gradientUnits="userSpaceOnUse" x1="937.6525" y1="2428.7354" x2="1030.6144" y2="2428.7354" gradientTransform="matrix(0.9914 0.1312 -0.1312 0.9914 55.9688 -96.9526)">
					<stop  offset="0" style="stop-color:#09005D"/>
					<stop  offset="1" style="stop-color:#1A0F91"/>
				</linearGradient>
				<path style="fill:url(#SVGID_00000103961937804802310220000015514083535250769542_);" d="M768.046,2370.068l-17.693-30.51
					c0,0-21.79,7.052-40.515,7.516c-2.981,0.074-5.632,0.331-8.061,0.783c-6.796,7.151-13.723,18.051-17.135,34.394
					c-7.949,38.074-28.417,118.064-27.788,130.048c0.399,7.6,1.965,16.969,7.704,26.709c7.603-4.489,18.361-16.237,26.972-28.559
					c12.833-18.364,55.283-72.796,66.321-93.754C768.889,2395.736,768.046,2370.068,768.046,2370.068z"/>
			</g>
			<g>
				
					<linearGradient id="SVGID_00000051357053788506001000000016071129385879559833_" gradientUnits="userSpaceOnUse" x1="1281.4557" y1="2160.4077" x2="1340.9883" y2="2160.4077" gradientTransform="matrix(0.9914 0.1312 -0.1312 0.9914 55.9688 -96.9526)">
					<stop  offset="0" style="stop-color:#4F52FF"/>
					<stop  offset="1" style="stop-color:#4042E2"/>
				</linearGradient>
				<path style="fill:url(#SVGID_00000051357053788506001000000016071129385879559833_);" d="M1091.951,2156.981
					c6.069-15.553,14.704-25.156,22.589-31.084c-13.042,0.233-20.208,7.674-30.201,30.386
					c-11.885,27.014-41.056,101.084-47.758,117.402c-6.702,16.318-2.303,26.667,1.358,33.769c1.205,2.337,4.225,2.354,8.266,0.8
					c-4.048-10.556-4.042-20.055-3.178-27.616C1044.39,2268.716,1077.812,2193.215,1091.951,2156.981z"/>
				
					<linearGradient id="SVGID_00000112630340702759405160000009540230975207171000_" gradientUnits="userSpaceOnUse" x1="1290.3959" y1="2156.2319" x2="1406.4447" y2="2156.2319" gradientTransform="matrix(0.9914 0.1312 -0.1312 0.9914 55.9688 -96.9526)">
					<stop  offset="0" style="stop-color:#09005D"/>
					<stop  offset="1" style="stop-color:#1A0F91"/>
				</linearGradient>
				<path style="fill:url(#SVGID_00000112630340702759405160000009540230975207171000_);" d="M1176.22,2158.768l-12.401-33.018
					c0,0-22.656,3.35-41.2,0.708c-2.952-0.42-5.609-0.606-8.079-0.562c-7.885,5.928-16.52,15.531-22.589,31.084
					c-14.139,36.234-47.561,111.735-48.923,123.657c-0.864,7.561-0.87,17.06,3.178,27.616c8.241-3.169,20.795-12.975,31.326-23.702
					c15.695-15.988,66.567-62.645,80.92-81.488C1172.804,2184.222,1176.22,2158.768,1176.22,2158.768z"/>
			</g>
			
				<linearGradient id="SVGID_00000143582198417515083670000012669194782557735077_" gradientUnits="userSpaceOnUse" x1="2137.7061" y1="1067.8817" x2="2394.7783" y2="1067.8817" gradientTransform="matrix(0.9914 0.1312 -0.1312 0.9914 55.9688 -96.9526)">
				<stop  offset="0" style="stop-color:#FEBBBA"/>
				<stop  offset="1" style="stop-color:#FF928E"/>
			</linearGradient>
			<path style="fill:url(#SVGID_00000143582198417515083670000012669194782557735077_);" d="M1816.094,1293.238l186.683-109.662
				c1.151-0.676,2.067-1.691,2.622-2.906l25.617-56.047c0.691-1.512,1.934-2.701,3.474-3.326l12.491-5.062
				c1.243-0.504,2.612-0.611,3.918-0.307l35.651,8.297c2.878,0.67,4.944,3.195,5.029,6.15l0.498,17.259
				c0.049,1.681-0.556,3.316-1.686,4.561l-5.774,6.361c-1.659,1.827-2.141,4.436-1.245,6.735l0,0c1,2.565,0.294,5.486-1.797,7.277
				c-6.859,5.874-23.863,18.618-49.332,25.754c-0.872,0.244-1.697,0.667-2.392,1.247l-174.005,145.186
				c-2.813,2.347-7.007,1.91-9.276-0.965l-32.288-40.911C1811.837,1299.781,1812.691,1295.237,1816.094,1293.238z"/>
			
				<linearGradient id="SVGID_00000083803172714117425010000012954557016621204914_" gradientUnits="userSpaceOnUse" x1="1815.1439" y1="1245.7781" x2="1480.6869" y2="1701.8564">
				<stop  offset="0" style="stop-color:#FF928E"/>
				<stop  offset="1" style="stop-color:#FE7062"/>
			</linearGradient>
			<path style="fill:url(#SVGID_00000083803172714117425010000012954557016621204914_);" d="M1540.91,1462.269l267.484-169.914
				c5.257-3.339,12.175-2.352,16.249,2.359c8.961,10.362,23.743,28.866,29.686,44.444c2.219,5.815,0.247,12.391-4.775,16.068
				l-280.666,205.564L1540.91,1462.269z"/>
			
				<linearGradient id="SVGID_00000065774629185715325270000008900795050746094985_" gradientUnits="userSpaceOnUse" x1="990.1766" y1="2333.6023" x2="1074.4039" y2="2333.6023" gradientTransform="matrix(0.9914 0.1312 -0.1312 0.9914 55.9688 -96.9526)">
				<stop  offset="0" style="stop-color:#FEBBBA"/>
				<stop  offset="1" style="stop-color:#FF928E"/>
			</linearGradient>
			<path style="fill:url(#SVGID_00000065774629185715325270000008900795050746094985_);" d="M776.961,2302.701
				c-4.393,4.411-38.249,50.441-45.58,60.426c-1.231,1.677-2.148,3.542-2.666,5.557c-1.415,5.501-2.261,16.264,8.461,25.608
				c6.559,5.716,16.449,5.354,22.574-0.824l58.232-58.734L776.961,2302.701z"/>
			
				<linearGradient id="SVGID_00000144314945049902308950000007234383486803834242_" gradientUnits="userSpaceOnUse" x1="1366.1254" y1="2069.4451" x2="1451.1432" y2="2069.4451" gradientTransform="matrix(0.9914 0.1312 -0.1312 0.9914 55.9688 -96.9526)">
				<stop  offset="0" style="stop-color:#FEBBBA"/>
				<stop  offset="1" style="stop-color:#FF928E"/>
			</linearGradient>
			<path style="fill:url(#SVGID_00000144314945049902308950000007234383486803834242_);" d="M1196.159,2093.805
				c-5.062,3.623-46.068,43.417-54.95,52.051c-1.492,1.45-2.704,3.138-3.549,5.039c-2.306,5.191-4.921,15.665,4.107,26.655
				c5.523,6.722,15.336,8.002,22.399,2.922l61.48-54.476L1196.159,2093.805z"/>
			
				<linearGradient id="SVGID_00000049928149097249670710000011350199129913613472_" gradientUnits="userSpaceOnUse" x1="1106.2924" y1="2201.3701" x2="1298.2285" y2="1227.2935">
				<stop  offset="0" style="stop-color:#09005D"/>
				<stop  offset="1" style="stop-color:#1A0F91"/>
			</linearGradient>
			<path style="fill:url(#SVGID_00000049928149097249670710000011350199129913613472_);" d="M1293.979,1868.567
				c1.823-13.778,80.235,1.58,150.602,2.74c36.954,0.609,52.734,47.231,23.754,70.169l-238.549,188.811
				c-4.993,3.952-11.811,4.785-17.555,2.035c-7.887-3.776-19.178-10.292-28.682-20.06c-5.549-5.702-5.469-14.833-0.082-20.688
				l114.658-124.601l-91.38,13.741l-388.698,368.958c-6.421,6.095-16.367,6.428-23.185,0.78
				c-9.016-7.469-20.888-18.489-28.17-29.922c-3.84-6.029-3.099-13.893,1.566-19.309c44.3-51.423,285.142-331.669,298.854-362.272
				c15.105-33.712,62.04-92.898,98.27-90.434C1201.612,1850.98,1293.979,1868.567,1293.979,1868.567z"/>
			
				<linearGradient id="SVGID_00000106138874712605207420000005188530173875978666_" gradientUnits="userSpaceOnUse" x1="1251.2501" y1="2717.0605" x2="1347.2174" y2="1939.7213">
				<stop  offset="0" style="stop-color:#09005D"/>
				<stop  offset="1" style="stop-color:#1A0F91"/>
			</linearGradient>
			<path style="fill:url(#SVGID_00000106138874712605207420000005188530173875978666_);" d="M1303.639,1965.849
				c-0.99-0.131-1.806-0.911-1.94-1.948c-0.158-1.235,0.714-2.365,1.949-2.524l81.962-10.516c1.242-0.154,2.366,0.716,2.524,1.949
				c0.158,1.235-0.714,2.365-1.95,2.524l-81.962,10.516C1304.024,1965.876,1303.828,1965.874,1303.639,1965.849z"/>
			
				<linearGradient id="SVGID_00000009553022383559599740000010787106908152783807_" gradientUnits="userSpaceOnUse" x1="1174.915" y1="3028.7288" x2="1218.1011" y2="2145.821">
				<stop  offset="0" style="stop-color:#09005D"/>
				<stop  offset="1" style="stop-color:#1A0F91"/>
			</linearGradient>
			<path style="fill:url(#SVGID_00000009553022383559599740000010787106908152783807_);" d="M1215.376,1975.984
				c-0.543-0.072-1.06-0.34-1.437-0.793c-0.797-0.957-0.667-2.379,0.29-3.175l22.613-18.823c0.959-0.8,2.38-0.665,3.175,0.29
				c0.797,0.957,0.667,2.379-0.29,3.175l-22.613,18.823C1216.61,1975.902,1215.978,1976.064,1215.376,1975.984z"/>
			
				<linearGradient id="SVGID_00000031165429369429441700000018132059017068486326_" gradientUnits="userSpaceOnUse" x1="946.6045" y1="2244.6208" x2="1352.0059" y2="1734.4901">
				<stop  offset="0" style="stop-color:#FF928E"/>
				<stop  offset="1" style="stop-color:#FE7062"/>
			</linearGradient>
			<path style="fill:url(#SVGID_00000031165429369429441700000018132059017068486326_);" d="M1581.744,1463.649
				c0,0,36.188,48.263,19.237,121.011c-4.988,21.406-16.201,40.872-31.828,56.328l-247.277,244.571
				c-5.704,5.642-13.413,8.79-21.436,8.714c-31.569-0.3-115.168-3.786-171.063-30.891c-4.446-2.156-5.743-7.894-2.759-11.833
				l236.715-312.441l134.207-119.929C1497.541,1419.179,1555.495,1407.465,1581.744,1463.649z"/>
			
				<linearGradient id="SVGID_00000150104470788006045020000009592103364634554500_" gradientUnits="userSpaceOnUse" x1="1345.3311" y1="664.2923" x2="1402.9111" y2="1907.079">
				<stop  offset="0" style="stop-color:#E1473D"/>
				<stop  offset="1" style="stop-color:#E9605A"/>
			</linearGradient>
			<path style="fill:url(#SVGID_00000150104470788006045020000009592103364634554500_);" d="M1271.311,1784.145
				c-0.803,0-1.607-0.3-2.229-0.904c-1.267-1.229-1.297-3.255-0.066-4.522c2.163-2.231,216.684-223.349,233.006-251.674
				c15.313-26.575-9.738-52.339-9.994-52.595c-1.243-1.256-1.234-3.28,0.02-4.525c1.257-1.239,3.28-1.234,4.525,0.02
				c0.289,0.292,28.715,29.537,10.991,60.295c-16.716,29.008-225.096,243.805-233.959,252.935
				C1272.979,1783.82,1272.145,1784.145,1271.311,1784.145z"/>
			
				<linearGradient id="SVGID_00000165208735447235144480000010735092394036784562_" gradientUnits="userSpaceOnUse" x1="1208.1326" y1="1803.9546" x2="1045.9717" y2="2003.2773">
				<stop  offset="0" style="stop-color:#FEBBBA"/>
				<stop  offset="1" style="stop-color:#FF928E"/>
			</linearGradient>
			<path style="fill:url(#SVGID_00000165208735447235144480000010735092394036784562_);" d="M1202.297,1752.809
				c0,0,32.671,27.012,61.733,33.925l-103.512,98.541c0,0-22.458,69.638-35.093,77.792c-12.635,8.155-45.753,10.345-52.033-6.886
				s-6.805-34.807-6.805-34.807s6.316-7.568,13.807,8.74l2.269-17.144c0,0,13.034,7.896,11.378,18.951
				c0,0-6.14-47.697,15.299-60.258c21.439-12.562,26.764-14.328,26.764-14.328L1202.297,1752.809z"/>
			
				<linearGradient id="SVGID_00000014621903519270382710000017468799331608885678_" gradientUnits="userSpaceOnUse" x1="1532.952" y1="1402.7574" x2="840.3906" y2="1669.6476">
				<stop  offset="0" style="stop-color:#E1473D"/>
				<stop  offset="1" style="stop-color:#E9605A"/>
			</linearGradient>
			<path style="fill:url(#SVGID_00000014621903519270382710000017468799331608885678_);" d="M875.107,1698.327
				c-5.051,0.277-8.409,5.348-6.776,10.136c7.505,21.997,31.652,71.532,95.705,65.399c82.021-7.854,349.106-159.245,410.713-202.112
				c61.607-42.867,142.667-95.708,177.123-82.276s15.713-10.045-6.769-29.87s-28.424-45.351-10.654-38.376
				c0,0-42.396-20.238-114.989,8.095c-70.939,27.688-410.261,109.527-513.572,59.159c-3.823-1.864-8.393,0.151-9.668,4.207
				c-7.561,24.05-24.286,100.263,27.418,195.341C923.639,1688.031,897.387,1697.104,875.107,1698.327z"/>
			
				<linearGradient id="SVGID_00000142896768181851329080000008570885352802323076_" gradientUnits="userSpaceOnUse" x1="1201.3252" y1="163.4777" x2="1026.2155" y2="1396.2533">
				<stop  offset="0" style="stop-color:#FF928E"/>
				<stop  offset="1" style="stop-color:#FE7062"/>
			</linearGradient>
			<path style="fill:url(#SVGID_00000142896768181851329080000008570885352802323076_);" d="M934.738,1688.891
				c-1.407,0-2.734-0.857-3.27-2.249c-0.693-1.806,0.209-3.832,2.014-4.525c0.876-0.335,87.697-33.716,106.737-45.647
				c1.638-1.028,3.803-0.528,4.828,1.106c1.028,1.64,0.532,3.802-1.106,4.828c-19.613,12.29-104.35,44.87-107.948,46.252
				C935.581,1688.816,935.155,1688.891,934.738,1688.891z"/>
			<g>
				
					<linearGradient id="SVGID_00000088840352210301939480000017786288698048601510_" gradientUnits="userSpaceOnUse" x1="1615.4624" y1="526.356" x2="1721.3621" y2="417.7057" gradientTransform="matrix(0.9192 0.3937 -0.3937 0.9192 222.783 320.936)">
					<stop  offset="0" style="stop-color:#FEBBBA"/>
					<stop  offset="1" style="stop-color:#FF928E"/>
				</linearGradient>
				<path style="fill:url(#SVGID_00000088840352210301939480000017786288698048601510_);" d="M1608.711,1337.927l-74.91,80.767
					c-4.87,5.25-5.35,13.18-1.182,19.003c7.303,10.202,19.95,24.89,35.021,29.857c4.68,1.542,9.83,0.174,13.038-3.566l40.385-47.083
					C1621.064,1416.905,1638.202,1336.817,1608.711,1337.927z"/>
				
					<linearGradient id="SVGID_00000145755522074503658990000009075594402100283558_" gradientUnits="userSpaceOnUse" x1="1207.4487" y1="1056.4128" x2="1073.3667" y2="1233.7924" gradientTransform="matrix(0.775 -0.6319 0.6319 0.775 13.162 1227.2976)">
					<stop  offset="0" style="stop-color:#FEBBBA"/>
					<stop  offset="1" style="stop-color:#FF928E"/>
				</linearGradient>
				<path style="fill:url(#SVGID_00000145755522074503658990000009075594402100283558_);" d="M1636.385,1265.803
					c1.117,1.37,40.029,111.573,40.029,111.573l-63.397,20.881l-52.399-98.971
					C1560.618,1299.287,1617.684,1242.868,1636.385,1265.803z"/>
				
					<linearGradient id="SVGID_00000027596250128068417690000000169281204543936147_" gradientUnits="userSpaceOnUse" x1="1105.0485" y1="1099.0105" x2="1265.2115" y2="1099.0105" gradientTransform="matrix(0.775 -0.6319 0.6319 0.775 13.162 1227.2976)">
					<stop  offset="0" style="stop-color:#09005D"/>
					<stop  offset="1" style="stop-color:#1A0F91"/>
				</linearGradient>
				<path style="fill:url(#SVGID_00000027596250128068417690000000169281204543936147_);" d="M1586.263,1313.723l23.164,53.476
					c0.351,0.811,0.799,1.562,1.361,2.244c3.102,3.761,13.939,14.941,25.023,3.139c9.447-10.059,18.268-19.173,26.838-22.28
					c5.005-1.814,10.51,0.892,12.264,5.918c3.613,10.353,10.479,31.392,13.955,50.94c0.871,4.899-2.224,9.627-7.041,10.874
					c-12.713,3.292-37.731,8.977-59.279,9.097c-3.54,0.02-6.787-1.902-8.481-5.01c-7.454-13.678-28.502-51.93-36.106-61.813
					c-7.064-9.183-22.486-8.114-29.51-7.065c-2.666,0.398-5.354-0.319-7.461-2.001c-6.318-5.044-16.936-16.927-3.669-32.911
					c3.299-3.974,2.673-9.932-1.232-13.312c-6.998-6.057-14.063-16.622-4.11-30.9c10.075-14.454,24.585-13.952,34.184-11.468
					c4.247,1.099,8.93-0.585,11.118-4.387c0.973-1.691,2.631-3.023,5.416-3.214c5.251-0.361,9.227-4.593,8.901-9.846
					c-0.559-9.008,2.246-20.242,17.285-26.095c27.582-10.734,47.056,15.28,50.209,35.483c3.154,20.202-27.412,30.139-45.799,30.04
					c-13.506-0.073-22.707,13.46-26.64,20.65C1585.225,1307.89,1585.081,1310.994,1586.263,1313.723z"/>
				
					<linearGradient id="SVGID_00000147197502033623184750000000245853353761513884_" gradientUnits="userSpaceOnUse" x1="1011.0712" y1="1196.8834" x2="1118.616" y2="1086.5453" gradientTransform="matrix(0.775 -0.6319 0.6319 0.775 13.162 1227.2976)">
					<stop  offset="0" style="stop-color:#FEBBBA"/>
					<stop  offset="1" style="stop-color:#FF928E"/>
				</linearGradient>
				<path style="fill:url(#SVGID_00000147197502033623184750000000245853353761513884_);" d="M1586.715,1379.979
					c0,0-7.006-34.966-21.803-35.674c-14.797-0.709-28.245,12.346-12.276,31.136
					C1572.498,1398.812,1586.715,1379.979,1586.715,1379.979z"/>
			</g>
			
				<linearGradient id="SVGID_00000012472729370504264170000010809170673381947272_" gradientUnits="userSpaceOnUse" x1="2139.1321" y1="984.3357" x2="2172.2427" y2="984.3357" gradientTransform="matrix(0.9914 0.1312 -0.1312 0.9914 55.9688 -96.9526)">
				<stop  offset="0" style="stop-color:#FEBBBA"/>
				<stop  offset="1" style="stop-color:#FF928E"/>
			</linearGradient>
			<path style="fill:url(#SVGID_00000012472729370504264170000010809170673381947272_);" d="M2048.036,1167.419
				c-0.243-0.032-0.481-0.124-0.692-0.28c-0.67-0.491-0.813-1.433-0.32-2.101c0.443-0.606,11.007-14.74,21.297-10.031
				c8.055,3.694,10.533,3.038,10.561,3.032c0.741-0.365,1.581-0.032,1.949,0.714c0.366,0.745-0.003,1.671-0.749,2.038
				c-0.721,0.355-3.79,1.181-13.013-3.05c-8.087-3.722-17.529,8.95-17.623,9.078
				C2049.109,1167.277,2048.561,1167.489,2048.036,1167.419z"/>
		</g>
	</g>
</g>
</svg>
